<?xml version="1.0" encoding="utf-8"?>
<svg xmlns="http://www.w3.org/2000/svg">
  <defs>
    <symbol id="paw" viewBox="0 0 64 64">
      <path d="M40.1001 33.5099C37.9122 31.438 35.0134 30.2832 32.0001 30.2832C28.9868 30.2832 26.088 31.438 23.9001 33.5099L14.1301 42.7499C8.5301 47.8399 12.5701 57.5699 20.1301 57.1899C24.2301 57.0799 27.5601 54.9799 31.9901 55.0599C36.5801 54.9799 39.9901 56.8299 44.1101 57.1899C51.5401 57.3599 55.3801 47.7399 49.8601 42.7499L40.1001 33.5099Z" fill="currentColor"/>
      <path d="M56.9201 19.93C53.1001 19.18 50.1801 23.43 49.4201 27.09C47.1401 38.42 58.1201 40.58 60.6901 29.59C61.7401 24.88 60.0801 20.63 56.9201 19.93Z" fill="currentColor"/>
      <path d="M40.7301 26.05C44.5301 26.05 47.6201 21.73 47.6201 16.43C47.2401 3.66998 34.2201 3.66998 33.8501 16.43C33.8501 21.73 36.9401 26.05 40.7301 26.05Z" fill="currentColor"/>
      <path d="M14.58 27.09C13.83 23.43 10.9 19.18 7.08004 19.93C3.86238e-05 21.72 3.00004 36.81 9.92004 36.85C13.84 36.72 15.65 32.17 14.58 27.09Z" fill="currentColor"/>
      <path d="M23.27 26.05C27.06 26.05 30.15 21.73 30.15 16.43C29.78 3.66998 16.76 3.66998 16.38 16.43C16.38 21.73 19.47 26.05 23.27 26.05Z" fill="currentColor"/>
    </symbol>
    <symbol id="heart" viewBox="0 0 24 24">
        <path fill="currentColor" d="M20.84 4.61a5.5 5.5 0 0 0-7.78 0L12 5.67l-1.06-1.06a5.5 5.5 0 0 0-7.78 7.78l1.06 1.06L12 21.23l7.78-7.78 1.06-1.06a5.5 5.5 0 0 0 0-7.78z"/>
    </symbol>
    <symbol id="back" viewBox="0 0 16 16">
      <path fill="currentColor" d="M15,6H8V3c0-0.484-0.375-1-1-1C6.539,2,6.305,2.287,6,2.54L0.625,7C0.242,7.313,0,7.555,0,8s0.242,0.688,0.625,1L6,13.46  C6.305,13.713,6.539,14,7,14c0.625,0,1-0.516,1-1v-3h7c0.55,0,1-0.45,1-1V7C16,6.45,15.55,6,15,6z"/>
    </symbol>
    <symbol id="male" viewBox="0 0 20 20">
      <g id="Page-1" stroke="none" stroke-width="1" fill="none" fill-rule="evenodd">
        <g id="Dribbble-Light-Preview" transform="translate(-60.000000, -2079.000000)" fill="currentColor">
          <g id="icons" transform="translate(56.000000, 160.000000)">
            <path d="M11,1937.005 C8.243,1937.005 6,1934.762 6,1932.005 C6,1929.248 8.243,1927.005 11,1927.005 C13.757,1927.005 16,1929.248 16,1932.005 C16,1934.762 13.757,1937.005 11,1937.005 L11,1937.005 Z M16,1919 L16,1921 L20.586,1921 L15.186,1926.402 C14.018,1925.527 12.572,1925.004 11,1925.004 C7.134,1925.004 4,1928.138 4,1932.004 C4,1935.87 7.134,1939.005 11,1939.005 C14.866,1939.005 18,1935.871 18,1932.005 C18,1930.433 17.475,1928.987 16.601,1927.818 L22,1922.419 L22,1927 L24,1927 L24,1919 L16,1919 Z" id="male-[#1364]"></path>
          </g>
        </g>
      </g>
    </symbol>
    <symbol id="female" viewBox="0 0 14 20">
      <g id="Page-1" stroke="none" stroke-width="1" fill="currentColor" fill-rule="evenodd">
        <g id="Dribbble-Light-Preview" transform="translate(-103.000000, -2079.000000)" fill="currentColor">
          <g id="icons" transform="translate(56.000000, 160.000000)">
            <path d="M54.010058,1930.97067 C52.6753909,1930.97067 51.421643,1930.45194 50.4775859,1929.51025 C47.3327267,1926.36895 49.5904718,1920.99511 54.010058,1920.99511 C58.4266471,1920.99511 60.6903863,1926.36595 57.5425301,1929.51025 C56.5984729,1930.45194 55.344725,1930.97067 54.010058,1930.97067 M58.9411333,1930.92079 C63.3617184,1926.50661 60.1768991,1919 54.007061,1919 C47.8512088,1919 44.6294265,1926.50661 49.0510106,1930.92079 C50.1609021,1932.02908 51.9840813,1932.67949 52.9830836,1932.88598 L52.9830836,1935.00978 L49.9860767,1935.00978 L49.9860767,1937.00489 L52.9830836,1937.00489 L52.9830836,1939 L54.9810882,1939 L54.9810882,1937.00489 L57.9780951,1937.00489 L57.9780951,1935.00978 L54.9810882,1935.00978 L54.9810882,1932.88598 C56.9790928,1932.67949 57.8302427,1932.02908 58.9411333,1930.92079" id="female-[#1363]"></path>
          </g>
        </g>
      </g>
    </symbol>
    <symbol id="login" viewBox="0 0 96 96">
      <g>
        <path fill="currentColor" d="M43.7578,61.7578a5.9994,5.9994,0,1,0,8.4844,8.4844l18-18a5.9979,5.9979,0,0,0,0-8.4844l-18-18a5.9994,5.9994,0,0,0-8.4844,8.4844L51.5156,42H6A6,6,0,0,0,6,54H51.5156Z"/>
        <path fill="currentColor" d="M90,0H30a5.9966,5.9966,0,0,0-6,6V18a6,6,0,0,0,12,0V12H84V84H36V78a6,6,0,0,0-12,0V90a5.9966,5.9966,0,0,0,6,6H90a5.9966,5.9966,0,0,0,6-6V6A5.9966,5.9966,0,0,0,90,0Z"/>
      </g>
    </symbol>
    <symbol id="search" viewBox="0 0 512 512" >
      <path fill="currentColor" d="M344.5,298c15-23.6,23.8-51.6,23.8-81.7c0-84.1-68.1-152.3-152.1-152.3C132.1,64,64,132.2,64,216.3  c0,84.1,68.1,152.3,152.1,152.3c30.5,0,58.9-9,82.7-24.4l6.9-4.8L414.3,448l33.7-34.3L339.5,305.1L344.5,298z M301.4,131.2  c22.7,22.7,35.2,52.9,35.2,85c0,32.1-12.5,62.3-35.2,85c-22.7,22.7-52.9,35.2-85,35.2c-32.1,0-62.3-12.5-85-35.2  c-22.7-22.7-35.2-52.9-35.2-85c0-32.1,12.5-62.3,35.2-85c22.7-22.7,52.9-35.2,85-35.2C248.5,96,278.7,108.5,301.4,131.2z"/>
    </symbol>
    <!-- icons go here -->
  </defs>
</svg>