<?xml version="1.0" encoding="utf-8"?>
<svg xmlns="http://www.w3.org/2000/svg">
  <defs>
    <symbol id="paw" viewBox="0 0 64 64">
      <path d="M40.1001 33.5099C37.9122 31.438 35.0134 30.2832 32.0001 30.2832C28.9868 30.2832 26.088 31.438 23.9001 33.5099L14.1301 42.7499C8.5301 47.8399 12.5701 57.5699 20.1301 57.1899C24.2301 57.0799 27.5601 54.9799 31.9901 55.0599C36.5801 54.9799 39.9901 56.8299 44.1101 57.1899C51.5401 57.3599 55.3801 47.7399 49.8601 42.7499L40.1001 33.5099Z" fill="currentColor"/>
      <path d="M56.9201 19.93C53.1001 19.18 50.1801 23.43 49.4201 27.09C47.1401 38.42 58.1201 40.58 60.6901 29.59C61.7401 24.88 60.0801 20.63 56.9201 19.93Z" fill="currentColor"/>
      <path d="M40.7301 26.05C44.5301 26.05 47.6201 21.73 47.6201 16.43C47.2401 3.66998 34.2201 3.66998 33.8501 16.43C33.8501 21.73 36.9401 26.05 40.7301 26.05Z" fill="currentColor"/>
      <path d="M14.58 27.09C13.83 23.43 10.9 19.18 7.08004 19.93C3.86238e-05 21.72 3.00004 36.81 9.92004 36.85C13.84 36.72 15.65 32.17 14.58 27.09Z" fill="currentColor"/>
      <path d="M23.27 26.05C27.06 26.05 30.15 21.73 30.15 16.43C29.78 3.66998 16.76 3.66998 16.38 16.43C16.38 21.73 19.47 26.05 23.27 26.05Z" fill="currentColor"/>
    </symbol>
    <symbol id="heart" viewBox="0 0 24 24">
        <path fill="currentColor" d="M20.84 4.61a5.5 5.5 0 0 0-7.78 0L12 5.67l-1.06-1.06a5.5 5.5 0 0 0-7.78 7.78l1.06 1.06L12 21.23l7.78-7.78 1.06-1.06a5.5 5.5 0 0 0 0-7.78z"/>
    </symbol>
    <symbol id="back" viewBox="0 0 16 16">
      <path fill="currentColor" d="M15,6H8V3c0-0.484-0.375-1-1-1C6.539,2,6.305,2.287,6,2.54L0.625,7C0.242,7.313,0,7.555,0,8s0.242,0.688,0.625,1L6,13.46  C6.305,13.713,6.539,14,7,14c0.625,0,1-0.516,1-1v-3h7c0.55,0,1-0.45,1-1V7C16,6.45,15.55,6,15,6z"/>
    </symbol>
    <symbol id="status" viewBox="0 0 50 50">
      <path fill="currentColor" d="M42.2,44.4H8.8c-0.6,0-1-0.4-1-1V9.9c0-0.6,0.4-1,1-1h24.4c0.6,0,1,0.4,1,1s-0.4,1-1,1H9.8v31.4h31.4V18.7
        c0-0.6,0.4-1,1-1s1,0.4,1,1v24.7C43.2,43.9,42.7,44.4,42.2,44.4z"/>
      <path fill="currentColor" d="M40.2,15.9c-2.2,0-4-1.8-4-4s1.8-4,4-4s4,1.8,4,4S42.4,15.9,40.2,15.9z M40.2,9.9c-1.1,0-2,0.9-2,2
        s0.9,2,2,2s2-0.9,2-2S41.3,9.9,40.2,9.9z"/>
      <path fill="currentColor" d="M36.8,20H14.1c-0.6,0-1-0.4-1-1s0.4-1,1-1h22.6c0.6,0,1,0.4,1,1S37.3,20,36.8,20z"/>
    </symbol>
    <symbol id="male" viewBox="0 0 20 20">
      <g id="Page-1" stroke="none" stroke-width="1" fill="none" fill-rule="evenodd">
        <g id="Dribbble-Light-Preview" transform="translate(-60.000000, -2079.000000)" fill="currentColor">
          <g id="icons" transform="translate(56.000000, 160.000000)">
            <path d="M11,1937.005 C8.243,1937.005 6,1934.762 6,1932.005 C6,1929.248 8.243,1927.005 11,1927.005 C13.757,1927.005 16,1929.248 16,1932.005 C16,1934.762 13.757,1937.005 11,1937.005 L11,1937.005 Z M16,1919 L16,1921 L20.586,1921 L15.186,1926.402 C14.018,1925.527 12.572,1925.004 11,1925.004 C7.134,1925.004 4,1928.138 4,1932.004 C4,1935.87 7.134,1939.005 11,1939.005 C14.866,1939.005 18,1935.871 18,1932.005 C18,1930.433 17.475,1928.987 16.601,1927.818 L22,1922.419 L22,1927 L24,1927 L24,1919 L16,1919 Z" id="male-[#1364]"></path>
          </g>
        </g>
      </g>
    </symbol>
    <symbol id="female" viewBox="0 0 14 20">
      <g id="Page-1" stroke="none" stroke-width="1" fill="currentColor" fill-rule="evenodd">
        <g id="Dribbble-Light-Preview" transform="translate(-103.000000, -2079.000000)" fill="currentColor">
          <g id="icons" transform="translate(56.000000, 160.000000)">
            <path d="M54.010058,1930.97067 C52.6753909,1930.97067 51.421643,1930.45194 50.4775859,1929.51025 C47.3327267,1926.36895 49.5904718,1920.99511 54.010058,1920.99511 C58.4266471,1920.99511 60.6903863,1926.36595 57.5425301,1929.51025 C56.5984729,1930.45194 55.344725,1930.97067 54.010058,1930.97067 M58.9411333,1930.92079 C63.3617184,1926.50661 60.1768991,1919 54.007061,1919 C47.8512088,1919 44.6294265,1926.50661 49.0510106,1930.92079 C50.1609021,1932.02908 51.9840813,1932.67949 52.9830836,1932.88598 L52.9830836,1935.00978 L49.9860767,1935.00978 L49.9860767,1937.00489 L52.9830836,1937.00489 L52.9830836,1939 L54.9810882,1939 L54.9810882,1937.00489 L57.9780951,1937.00489 L57.9780951,1935.00978 L54.9810882,1935.00978 L54.9810882,1932.88598 C56.9790928,1932.67949 57.8302427,1932.02908 58.9411333,1930.92079" id="female-[#1363]"></path>
          </g>
        </g>
      </g>
    </symbol>
    <symbol id="age" viewBox="0 0 122.88 120.06">
      <path d="M69.66,4.05c0-2.23,2.2-4.05,4.94-4.05c2.74,0,4.94,1.81,4.94,4.05v17.72c0,2.23-2.2,4.05-4.94,4.05 c-2.74,0-4.94-1.81-4.94-4.05V4.05L69.66,4.05z M91.37,57.03c4.26,0,8.33,0.85,12.05,2.39c3.87,1.6,7.34,3.94,10.24,6.84 c2.9,2.9,5.24,6.38,6.84,10.23c1.54,3.72,2.39,7.79,2.39,12.05c0,4.26-0.85,8.33-2.39,12.05c-1.6,3.87-3.94,7.34-6.84,10.24 c-2.9,2.9-6.38,5.24-10.23,6.84c-3.72,1.54-7.79,2.39-12.05,2.39c-4.26,0-8.33-0.85-12.05-2.39c-3.87-1.6-7.34-3.94-10.24-6.84 c-2.9-2.9-5.24-6.38-6.84-10.24c-1.54-3.72-2.39-7.79-2.39-12.05c0-4.26,0.85-8.33,2.39-12.05c1.6-3.87,3.94-7.34,6.84-10.24 c2.9-2.9,6.38-5.24,10.23-6.84C83.04,57.88,87.1,57.03,91.37,57.03L91.37,57.03z M89.01,75.37c0-0.76,0.31-1.45,0.81-1.95l0,0l0,0 c0.5-0.5,1.19-0.81,1.96-0.81c0.77,0,1.46,0.31,1.96,0.81c0.5,0.5,0.81,1.19,0.81,1.96v14.74l11.02,6.54l0.09,0.06 c0.61,0.39,1.01,0.98,1.17,1.63c0.17,0.68,0.09,1.42-0.28,2.06l-0.02,0.03c-0.02,0.04-0.04,0.07-0.07,0.1 c-0.39,0.6-0.98,1-1.62,1.16c-0.68,0.17-1.42,0.09-2.06-0.28l-12.32-7.29c-0.43-0.23-0.79-0.58-1.05-0.99 c-0.26-0.42-0.41-0.91-0.41-1.43h0L89.01,75.37L89.01,75.37L89.01,75.37z M109.75,70.16c-2.4-2.4-5.26-4.33-8.43-5.64 c-3.06-1.27-6.42-1.96-9.95-1.96s-6.89,0.7-9.95,1.96c-3.17,1.31-6.03,3.24-8.43,5.64c-2.4,2.4-4.33,5.26-5.64,8.43 c-1.27,3.06-1.96,6.42-1.96,9.95c0,3.53,0.7,6.89,1.96,9.95c1.31,3.17,3.24,6.03,5.64,8.43c2.4,2.4,5.26,4.33,8.43,5.64 c3.06,1.27,6.42,1.96,9.95,1.96s6.89-0.7,9.95-1.96c3.17-1.31,6.03-3.24,8.43-5.64c4.71-4.71,7.61-11.2,7.61-18.38 c0-3.53-0.7-6.89-1.96-9.95C114.08,75.42,112.15,72.56,109.75,70.16L109.75,70.16z M13.45,57.36c-0.28,0-0.53-1.23-0.53-2.74 c0-1.51,0.22-2.73,0.53-2.73h13.48c0.28,0,0.53,1.23,0.53,2.73c0,1.51-0.22,2.74-0.53,2.74H13.45L13.45,57.36z M34.94,57.36 c-0.28,0-0.53-1.23-0.53-2.74c0-1.51,0.22-2.73,0.53-2.73h13.48c0.28,0,0.53,1.23,0.53,2.73c0,1.51-0.22,2.74-0.53,2.74H34.94 L34.94,57.36z M56.43,57.36c-0.28,0-0.53-1.23-0.53-2.74c0-1.51,0.22-2.73,0.53-2.73h13.48c0.28,0,0.53,1.22,0.53,2.72 c-1.35,0.84-2.65,1.76-3.89,2.75H56.43L56.43,57.36z M13.48,73.04c-0.28,0-0.53-1.23-0.53-2.74c0-1.51,0.22-2.74,0.53-2.74h13.48 c0.28,0,0.53,1.23,0.53,2.74c0,1.51-0.22,2.74-0.53,2.74H13.48L13.48,73.04z M34.97,73.04c-0.28,0-0.53-1.23-0.53-2.74 c0-1.51,0.22-2.74,0.53-2.74h13.48c0.28,0,0.53,1.23,0.53,2.74c0,1.51-0.22,2.74-0.53,2.74H34.97L34.97,73.04z M13.51,88.73 c-0.28,0-0.53-1.23-0.53-2.74c0-1.51,0.22-2.74,0.53-2.74h13.48c0.28,0,0.53,1.23,0.53,2.74c0,1.51-0.22,2.74-0.53,2.74H13.51 L13.51,88.73z M35,88.73c-0.28,0-0.53-1.23-0.53-2.74c0-1.51,0.22-2.74,0.53-2.74h13.48c0.28,0,0.53,1.23,0.53,2.74 c0,1.51-0.22,2.74-0.53,2.74H35L35,88.73z M25.29,4.05c0-2.23,2.2-4.05,4.94-4.05c2.74,0,4.94,1.81,4.94,4.05v17.72 c0,2.23-2.21,4.05-4.94,4.05c-2.74,0-4.94-1.81-4.94-4.05V4.05L25.29,4.05z M5.44,38.74h94.08v-20.4c0-0.7-0.28-1.31-0.73-1.76 c-0.45-0.45-1.09-0.73-1.76-0.73h-9.02c-1.51,0-2.74-1.23-2.74-2.74c0-1.51,1.23-2.74,2.74-2.74h9.02c2.21,0,4.19,0.89,5.64,2.34 c1.45,1.45,2.34,3.43,2.34,5.64v32.39c-1.8-0.62-3.65-1.12-5.55-1.49v-5.06h0.06H5.44v52.83c0,0.7,0.28,1.31,0.73,1.76 c0.45,0.45,1.09,0.73,1.76,0.73h44.71c0.51,1.9,1.15,3.75,1.92,5.53H7.98c-2.2,0-4.19-0.89-5.64-2.34C0.89,101.26,0,99.28,0,97.07 V18.36c0-2.2,0.89-4.19,2.34-5.64c1.45-1.45,3.43-2.34,5.64-2.34h9.63c1.51,0,2.74,1.23,2.74,2.74c0,1.51-1.23,2.74-2.74,2.74H7.98 c-0.7,0-1.31,0.28-1.76,0.73c-0.45,0.45-0.73,1.09-0.73,1.76v20.4H5.44L5.44,38.74z M43.07,15.85c-1.51,0-2.74-1.23-2.74-2.74 c0-1.51,1.23-2.74,2.74-2.74h18.36c1.51,0,2.74,1.23,2.74,2.74c0,1.51-1.23,2.74-2.74,2.74H43.07L43.07,15.85z" fill="currentColor"/>
    </symbol>
    <symbol id="gender" viewBox="0 0 1707 1707">
        <g fill="currentColor">
          <g>
            <g>
              <path d="M1310 1058c-220,0 -397,-177 -397,-397 0,-219 177,-398 397,-398 219,0 396,179 396,398 0,220 -177,397 -396,397zm0 -746c-192,0 -348,157 -348,349 0,192 156,349 348,349 191,0 348,-157 348,-349 0,-192 -157,-349 -348,-349z"/>
            </g>
            <g>
              <path d="M1310 1482c-14,0 -25,-11 -25,-25l0 -424c0,-14 11,-25 25,-25 13,0 25,11 25,25l0 424c0,14 -12,25 -25,25z"/>
            </g>
            <g>
              <path d="M1161 1337c-14,0 -23,-11 -25,-24 0,-14 11,-25 24,-25l298 -1c14,0 25,11 25,25 0,14 -11,25 -25,25l-92 0 -205 0c0,0 0,0 0,0z"/>
            </g>
          </g>
          <g>
            <g>
              <path d="M398 1482c-219,0 -398,-177 -398,-396 0,-219 179,-398 398,-398 220,0 397,179 397,398 0,218 -179,396 -397,396zm0 -746c-192,0 -349,157 -349,350 0,191 157,348 349,348 192,0 349,-157 349,-348 0,-193 -157,-350 -349,-350z"/>
            </g>
            <g>
              <path d="M398 736c-13,0 -25,-11 -25,-25l0 -461c0,-14 12,-25 25,-25 14,0 25,11 25,25l0 463c-1,12 -12,23 -25,23z"/>
            </g>
            <g>
              <path d="M469 344c-5,0 -12,-3 -16,-7l-71 -71c-10,-10 -10,-25 0,-35 10,-9 25,-9 34,0l71 71c10,10 10,25 0,35 -5,4 -12,7 -18,7z"/>
            </g>
            <g>
              <path d="M328 344c-6,0 -13,-3 -17,-7 -10,-10 -10,-25 0,-35l71 -71c10,-9 25,-9 34,0 10,10 10,25 0,35l-70 71c-6,4 -13,7 -18,7z"/>
            </g>
          </g>
        </g>
    </symbol>
    <symbol id="id" viewBox="0 0 64 64">
      <path d="M4 24.57C4.26522 24.57 4.51957 24.4646 4.70711 24.2771C4.89464 24.0896 5 23.8352 5 23.57V13H15.57C15.8352 13 16.0896 12.8946 16.2771 12.7071C16.4646 12.5196 16.57 12.2652 16.57 12C16.57 11.7348 16.4646 11.4804 16.2771 11.2929C16.0896 11.1054 15.8352 11 15.57 11H4C3.73478 11 3.48043 11.1054 3.29289 11.2929C3.10536 11.4804 3 11.7348 3 12V23.57C3 23.8352 3.10536 24.0896 3.29289 24.2771C3.48043 24.4646 3.73478 24.57 4 24.57Z" fill="currentColor"/>
      <path d="M15.57 51H5V40.43C5 40.1648 4.89464 39.9104 4.70711 39.7229C4.51957 39.5353 4.26522 39.43 4 39.43C3.73478 39.43 3.48043 39.5353 3.29289 39.7229C3.10536 39.9104 3 40.1648 3 40.43V52C3 52.2652 3.10536 52.5196 3.29289 52.7071C3.48043 52.8946 3.73478 53 4 53H15.57C15.8352 53 16.0896 52.8946 16.2771 52.7071C16.4646 52.5196 16.57 52.2652 16.57 52C16.57 51.7348 16.4646 51.4804 16.2771 51.2929C16.0896 51.1053 15.8352 51 15.57 51Z" fill="currentColor"/>
      <path d="M59.9999 11H48.4299C48.1647 11 47.9104 11.1054 47.7228 11.2929C47.5353 11.4804 47.4299 11.7348 47.4299 12C47.4299 12.2652 47.5353 12.5196 47.7228 12.7071C47.9104 12.8946 48.1647 13 48.4299 13H58.9999V23.57C58.9999 23.8352 59.1053 24.0896 59.2928 24.2771C59.4804 24.4646 59.7347 24.57 59.9999 24.57C60.2651 24.57 60.5195 24.4646 60.707 24.2771C60.8946 24.0896 60.9999 23.8352 60.9999 23.57V12C60.9999 11.7348 60.8946 11.4804 60.707 11.2929C60.5195 11.1054 60.2651 11 59.9999 11Z" fill="currentColor"/>
      <path d="M59.9999 39.43C59.7347 39.43 59.4804 39.5353 59.2928 39.7229C59.1053 39.9104 58.9999 40.1648 58.9999 40.43V51H48.4299C48.1647 51 47.9104 51.1053 47.7228 51.2929C47.5353 51.4804 47.4299 51.7348 47.4299 52C47.4299 52.2652 47.5353 52.5196 47.7228 52.7071C47.9104 52.8946 48.1647 53 48.4299 53H59.9999C60.2651 53 60.5195 52.8946 60.707 52.7071C60.8946 52.5196 60.9999 52.2652 60.9999 52V40.43C60.9999 40.1648 60.8946 39.9104 60.707 39.7229C60.5195 39.5353 60.2651 39.43 59.9999 39.43Z" fill="currentColor"/>
      <path d="M7.45996 17.07V46.93C7.45996 47.1952 7.56532 47.4496 7.75285 47.6371C7.94039 47.8247 8.19474 47.93 8.45996 47.93C8.72518 47.93 8.97953 47.8247 9.16707 47.6371C9.3546 47.4496 9.45996 47.1952 9.45996 46.93V17.07C9.45996 16.8048 9.3546 16.5504 9.16707 16.3629C8.97953 16.1754 8.72518 16.07 8.45996 16.07C8.19474 16.07 7.94039 16.1754 7.75285 16.3629C7.56532 16.5504 7.45996 16.8048 7.45996 17.07V17.07Z" fill="currentColor"/>
      <path d="M11.3899 17.07V46.93C11.3899 47.1952 11.4952 47.4496 11.6828 47.6371C11.8703 47.8247 12.1247 47.93 12.3899 47.93C12.6551 47.93 12.9095 47.8247 13.097 47.6371C13.2845 47.4496 13.3899 47.1952 13.3899 46.93V17.07C13.3899 16.8048 13.2845 16.5504 13.097 16.3629C12.9095 16.1754 12.6551 16.07 12.3899 16.07C12.1247 16.07 11.8703 16.1754 11.6828 16.3629C11.4952 16.5504 11.3899 16.8048 11.3899 17.07Z" fill="currentColor"/>
      <path d="M16.3101 16.07C16.0448 16.07 15.7905 16.1754 15.603 16.3629C15.4154 16.5504 15.3101 16.8048 15.3101 17.07V46.93C15.3101 47.1952 15.4154 47.4496 15.603 47.6371C15.7905 47.8247 16.0448 47.93 16.3101 47.93C16.5753 47.93 16.8296 47.8247 17.0172 47.6371C17.2047 47.4496 17.3101 47.1952 17.3101 46.93V17.07C17.3101 16.8048 17.2047 16.5504 17.0172 16.3629C16.8296 16.1754 16.5753 16.07 16.3101 16.07Z" fill="currentColor"/>
      <path d="M20.23 16.07C19.9648 16.07 19.7104 16.1754 19.5229 16.3629C19.3353 16.5504 19.23 16.8048 19.23 17.07V46.93C19.23 47.1952 19.3353 47.4496 19.5229 47.6371C19.7104 47.8247 19.9648 47.93 20.23 47.93C20.4952 47.93 20.7496 47.8247 20.9371 47.6371C21.1246 47.4496 21.23 47.1952 21.23 46.93V17.07C21.23 16.8048 21.1246 16.5504 20.9371 16.3629C20.7496 16.1754 20.4952 16.07 20.23 16.07Z" fill="currentColor"/>
      <path d="M24.1499 16.07C23.8847 16.07 23.6303 16.1754 23.4428 16.3629C23.2553 16.5504 23.1499 16.8048 23.1499 17.07V46.93C23.1499 47.1952 23.2553 47.4496 23.4428 47.6371C23.6303 47.8247 23.8847 47.93 24.1499 47.93C24.4151 47.93 24.6695 47.8247 24.857 47.6371C25.0445 47.4496 25.1499 47.1952 25.1499 46.93V17.07C25.1499 16.8048 25.0445 16.5504 24.857 16.3629C24.6695 16.1754 24.4151 16.07 24.1499 16.07Z" fill="currentColor"/>
      <path d="M28.0801 16.07C27.8149 16.07 27.5605 16.1754 27.373 16.3629C27.1854 16.5504 27.0801 16.8048 27.0801 17.07V46.93C27.0801 47.1952 27.1854 47.4496 27.373 47.6371C27.5605 47.8247 27.8149 47.93 28.0801 47.93C28.3453 47.93 28.5996 47.8247 28.7872 47.6371C28.9747 47.4496 29.0801 47.1952 29.0801 46.93V17.07C29.0801 16.8048 28.9747 16.5504 28.7872 16.3629C28.5996 16.1754 28.3453 16.07 28.0801 16.07Z" fill="currentColor"/>
      <path d="M32 16.07C31.7348 16.07 31.4804 16.1754 31.2929 16.3629C31.1054 16.5504 31 16.8048 31 17.07V46.93C31 47.1952 31.1054 47.4496 31.2929 47.6371C31.4804 47.8247 31.7348 47.93 32 47.93C32.2652 47.93 32.5196 47.8247 32.7071 47.6371C32.8946 47.4496 33 47.1952 33 46.93V17.07C33 16.8048 32.8946 16.5504 32.7071 16.3629C32.5196 16.1754 32.2652 16.07 32 16.07Z" fill="currentColor"/>
      <path d="M35.9199 16.07C35.6547 16.07 35.4004 16.1754 35.2128 16.3629C35.0253 16.5504 34.9199 16.8048 34.9199 17.07V46.93C34.9199 47.1952 35.0253 47.4496 35.2128 47.6371C35.4004 47.8247 35.6547 47.93 35.9199 47.93C36.1851 47.93 36.4395 47.8247 36.627 47.6371C36.8146 47.4496 36.9199 47.1952 36.9199 46.93V17.07C36.9199 16.8048 36.8146 16.5504 36.627 16.3629C36.4395 16.1754 36.1851 16.07 35.9199 16.07Z" fill="currentColor"/>
      <path d="M39.8501 16.07C39.5849 16.07 39.3305 16.1754 39.143 16.3629C38.9555 16.5504 38.8501 16.8048 38.8501 17.07V46.93C38.8501 47.1952 38.9555 47.4496 39.143 47.6371C39.3305 47.8247 39.5849 47.93 39.8501 47.93C40.1153 47.93 40.3697 47.8247 40.5572 47.6371C40.7447 47.4496 40.8501 47.1952 40.8501 46.93V17.07C40.8501 16.8048 40.7447 16.5504 40.5572 16.3629C40.3697 16.1754 40.1153 16.07 39.8501 16.07Z" fill="currentColor"/>
      <path d="M43.77 16.07C43.5048 16.07 43.2504 16.1754 43.0629 16.3629C42.8754 16.5504 42.77 16.8048 42.77 17.07V46.93C42.77 47.1952 42.8754 47.4496 43.0629 47.6371C43.2504 47.8247 43.5048 47.93 43.77 47.93C44.0352 47.93 44.2896 47.8247 44.4771 47.6371C44.6647 47.4496 44.77 47.1952 44.77 46.93V17.07C44.77 16.8048 44.6647 16.5504 44.4771 16.3629C44.2896 16.1754 44.0352 16.07 43.77 16.07Z" fill="currentColor"/>
      <path d="M48.6899 46.93V17.07C48.6899 16.8048 48.5846 16.5504 48.397 16.3629C48.2095 16.1754 47.9552 16.07 47.6899 16.07C47.4247 16.07 47.1704 16.1754 46.9828 16.3629C46.7953 16.5504 46.6899 16.8048 46.6899 17.07V46.93C46.6899 47.1952 46.7953 47.4496 46.9828 47.6371C47.1704 47.8247 47.4247 47.93 47.6899 47.93C47.9552 47.93 48.2095 47.8247 48.397 47.6371C48.5846 47.4496 48.6899 47.1952 48.6899 46.93Z" fill="currentColor"/>
      <path d="M52.6101 46.93V17.07C52.6101 16.8048 52.5048 16.5504 52.3172 16.3629C52.1297 16.1754 51.8753 16.07 51.6101 16.07C51.3449 16.07 51.0905 16.1754 50.903 16.3629C50.7155 16.5504 50.6101 16.8048 50.6101 17.07V46.93C50.6101 47.1952 50.7155 47.4496 50.903 47.6371C51.0905 47.8247 51.3449 47.93 51.6101 47.93C51.8753 47.93 52.1297 47.8247 52.3172 47.6371C52.5048 47.4496 52.6101 47.1952 52.6101 46.93Z" fill="currentColor"/>
      <path d="M56.54 46.93V17.07C56.54 16.8048 56.4347 16.5504 56.2471 16.3629C56.0596 16.1754 55.8053 16.07 55.54 16.07C55.2748 16.07 55.0205 16.1754 54.8329 16.3629C54.6454 16.5504 54.54 16.8048 54.54 17.07V46.93C54.54 47.1952 54.6454 47.4496 54.8329 47.6371C55.0205 47.8247 55.2748 47.93 55.54 47.93C55.8053 47.93 56.0596 47.8247 56.2471 47.6371C56.4347 47.4496 56.54 47.1952 56.54 46.93Z" fill="currentColor"/>
    </symbol>
    <symbol id="size" viewBox="0 0 50 50">
      <path d="M0.586,34L16,49.414L49.414,16L34,0.586L0.586,34z M16,46.586L3.414,34L5.5,31.914l4.793,4.793l1.414-1.414L6.914,30.5
        l3.586-3.586l2.793,2.793l1.414-1.414L11.914,25.5l3.586-3.586l4.793,4.793l1.414-1.414L16.914,20.5l3.586-3.586l2.793,2.793
        l1.414-1.414L21.914,15.5l3.586-3.586l4.793,4.793l1.414-1.414L26.914,10.5L30.5,6.914l2.793,2.793l1.414-1.414L31.914,5.5
        L34,3.414L46.586,16L16,46.586z" fill="currentColor"
      />
    </symbol>
    <symbol id="breed" viewBox="0 0 64 64">
      <path d="M40.1,33.51a11.78,11.78,0,0,0-16.2,0l-9.77,9.24c-5.6,5.09-1.56,14.82,6,14.44,4.1-.11,7.43-2.21,11.86-2.13,4.59-.08,8,1.77,12.12,2.13,7.43.17,11.27-9.45,5.75-14.44ZM50,51.18a6.3,6.3,0,0,1-6.1,4C40.05,54.62,36.66,53,32,53.06s-8,2-12.12,2.13a6.35,6.35,0,0,1-4.37-11L25.27,35a9.8,9.8,0,0,1,13.46,0l9.76,9.24A6.28,6.28,0,0,1,50,51.18Z" fill="currentColor"/>
      <path d="M56.92,19.93c-3.82-.75-6.74,3.5-7.5,7.16-2.28,11.33,8.7,13.49,11.27,2.5C61.74,24.88,60.08,20.63,56.92,19.93Zm1.82,9.23c-2.14,8.5-9,7-7.37-1.63h0C53.11,19.8,60.31,19.7,58.74,29.16Z" fill="currentColor"/>
      <path d="M40.73,26.05c3.8,0,6.89-4.32,6.89-9.62-.38-12.76-13.4-12.76-13.77,0C33.85,21.73,36.94,26.05,40.73,26.05Zm0-17.24c6.45.44,6.45,14.8,0,15.24C34.28,23.61,34.29,9.25,40.73,8.81Z" fill="currentColor"/>
      <path d="M14.58,27.09c-.75-3.66-3.68-7.91-7.5-7.16C0,21.72,3,36.81,9.92,36.85,13.84,36.72,15.65,32.17,14.58,27.09Zm-4.2,7.71c-4.93.74-7.65-11.51-2.87-12.91,2.88-.28,4.5,3.11,5.12,5.64h0C13.41,31,12.38,34.36,10.38,34.8Z" fill="currentColor"/>
      <path d="M23.27,26.05c3.79,0,6.88-4.32,6.88-9.62-.37-12.76-13.39-12.76-13.77,0C16.38,21.73,19.47,26.05,23.27,26.05Zm0-17.24c6.45.44,6.44,14.8,0,15.24C16.82,23.61,16.82,9.25,23.27,8.81Z" fill="currentColor"/>
    </symbol>
    <!-- icons go here -->
  </defs>
</svg>