<?xml version="1.0" encoding="utf-8"?>
<svg xmlns="http://www.w3.org/2000/svg">
  <defs>
    <symbol id="dog" viewBox="0 0 20 20">
        <path d="M10.7703 2.39423C11.1861 2.09489 11.67 2 12 2H13.446C13.8991 2 14.3437 2.12314 14.7323 2.35627L16.5145 3.4256C16.8157 3.60633 17 3.93183 17 4.2831V5.5C17 6.32843 16.3284 7 15.5 7H15V15.0377C15.4214 15.1031 15.8427 15.2597 16.1951 15.5534C16.7041 15.9775 17 16.6298 17 17.5C17 17.7761 16.7761 18 16.5 18H13.5008H5C3.34315 18 2 16.6569 2 15C2 14.0194 2.47097 13.1487 3.19692 12.6021C3.41753 12.436 3.73101 12.4802 3.89711 12.7008C4.06321 12.9214 4.01903 13.2349 3.79843 13.401C3.31258 13.7668 3 14.3468 3 15C3 16.1046 3.89543 17 5 17C5.28751 17 5.4699 16.9296 5.58984 16.8496C5.71291 16.7676 5.80119 16.6546 5.86529 16.5264C5.93036 16.3963 5.96539 16.2601 5.98337 16.1522C5.99216 16.0994 5.99636 16.0566 5.99834 16.0288C5.99933 16.0151 5.99974 16.0053 5.99991 16.0002L6.00001 15.9971L6.00001 15.9952L6.00009 15.986L6.00061 15.955C6.00118 15.9287 6.00228 15.8916 6.00442 15.8445C6.0087 15.7504 6.01713 15.6163 6.03373 15.4502C6.06689 15.1186 6.13295 14.6567 6.26493 14.1287C6.52746 13.0786 7.05951 11.7334 8.14645 10.6464C9.98945 8.80344 10 6.33059 10 5.5V4C10 3.23704 10.3291 2.71193 10.7703 2.39423ZM10.924 6.90034C10.7686 8.15605 10.2952 9.91192 8.85355 11.3536C7.94049 12.2666 7.47254 13.4214 7.23507 14.3713C7.11705 14.8433 7.05811 15.2564 7.02877 15.5498C7.01412 15.6962 7.00692 15.8121 7.00339 15.8899C7.00162 15.9287 7.00078 15.958 7.00037 15.9767L7.00003 15.9967L7 16.001L7 16.0022L6.99998 16.0051L6.99989 16.0124L6.99936 16.0335C6.99879 16.0504 6.99775 16.0728 6.9958 16.1001C6.99192 16.1544 6.9844 16.2287 6.96976 16.3166C6.94086 16.4899 6.88214 16.7287 6.75971 16.9736C6.75532 16.9824 6.75085 16.9912 6.74628 17H12.9194C12.8188 16.6806 12.6161 16.3513 12.2672 16.1678C12.0815 16.07 11.833 16 11.4992 16H10.5C10.2239 16 10 15.7761 10 15.5C10 15.2239 10.2239 15 10.5 15H11.5C11.6759 15 11.8425 15.0138 12 15.0401V12.5C12 12.2239 12.2239 12 12.5 12C12.7761 12 13 12.2239 13 12.5V15.4481C13.5792 15.8657 13.8468 16.4875 13.9482 17H15.9481C15.8725 16.6723 15.7226 16.4614 15.5549 16.3216C15.2979 16.1074 14.9257 16 14.5 16C14.2239 16 14 15.7761 14 15.5V6.5C14 6.22386 14.2239 6 14.5 6H15.5C15.7761 6 16 5.77614 16 5.5V4.2831L14.2178 3.21376C13.9847 3.07389 13.7179 3 13.446 3H12C11.83 3 11.5639 3.05511 11.3547 3.20577C11.1709 3.33807 11 3.56296 11 4V5.5C11 5.58666 11.0301 5.72777 11.1058 5.83285C11.1631 5.91243 11.263 6 11.5 6C11.737 6 11.8369 5.91243 11.8942 5.83285C11.9699 5.72777 12 5.58666 12 5.5C12 5.22386 12.2239 5 12.5 5C12.7761 5 13 5.22386 13 5.5C13 5.74668 12.9301 6.10557 12.7058 6.41715C12.4631 6.75423 12.063 7 11.5 7C11.2842 7 11.0923 6.96388 10.924 6.90034Z" fill="currentColor" />
    </symbol>
    <symbol id="cat" viewBox="0 0 20 20">
        <path d="M4.97 17.9999H6.13535L6.14635 18H14.25C15.1973 18 15.9652 17.2316 15.9652 16.2838V8.67392C17.5742 8.61011 18.5384 6.82402 17.6784 5.43609L17.1759 4.62528C16.7893 4.00125 16.1076 3.62162 15.3738 3.62162H13.9393V2.98649C13.9393 2.44167 13.4979 2 12.9534 2C11.6033 2 10.5088 3.09509 10.5088 4.44594V7.90235C9.23089 8.02751 8.26575 8.63291 7.55728 9.48354C6.77452 10.4234 6.31397 11.6488 6.03955 12.8256C5.76369 14.0085 5.66653 15.1838 5.63741 16.0581C5.62494 16.4323 5.62487 16.7537 5.62892 16.9999H4.97C3.8817 16.9999 2.99945 16.1171 2.99945 15.0282C2.99945 14.5288 3.18885 14.048 3.52942 13.6829L4.4498 12.6963C5.34607 11.7355 5.64543 10.3611 5.23006 9.1143C5.05404 8.58594 4.75749 8.10585 4.36388 7.71204L3.46084 6.80855C3.26569 6.61329 2.94928 6.6133 2.75413 6.80856C2.55898 7.00383 2.55899 7.32041 2.75415 7.51567L3.65718 8.41917C3.94106 8.70319 4.15495 9.04945 4.2819 9.43052C4.58148 10.3298 4.36557 11.321 3.71915 12.014L2.79877 13.0006C2.28547 13.5509 2 14.2755 2 15.0282C2 16.6694 3.32972 17.9999 4.97 17.9999ZM12.9399 3.00006V4.12162C12.9399 4.39776 13.1636 4.62162 13.4396 4.62162H15.3738C15.7617 4.62162 16.1221 4.82232 16.3265 5.15222L16.8289 5.96303C17.2919 6.71022 16.7548 7.67568 15.8762 7.67568H15.4655C15.1895 7.67568 14.9658 7.89953 14.9658 8.17568V16.2838C14.9658 16.6793 14.6453 17 14.25 17H13.5342V16.2838C13.5342 14.6642 12.222 13.3513 10.6034 13.3513H9.5904C9.31441 13.3513 9.09068 13.5752 9.09068 13.8513C9.09068 14.1275 9.31441 14.3513 9.5904 14.3513H10.6034C11.67 14.3513 12.5347 15.2165 12.5347 16.2838V17H6.62851C6.62442 16.7663 6.62416 16.4556 6.6363 16.0914C6.66415 15.2554 6.75692 14.1503 7.01286 13.0528C7.27024 11.9491 7.68336 10.8942 8.32507 10.1237C8.95151 9.37158 9.80307 8.87838 11.0085 8.87838C11.2845 8.87838 11.5082 8.65452 11.5082 8.37838V4.44594C11.5082 3.65188 12.148 3.00732 12.9399 3.00006Z" fill="currentColor"/>
    </symbol>
    <symbol id="rabbit" viewBox="0 0 20 20">
        <path d="M10.5118 15.0112H12.6347C13.5402 15.0112 14.312 14.443 14.616 13.6436C15.4988 13.7136 16.4066 13.4101 17.0823 12.7321C18.3059 11.5046 18.3059 9.51494 17.0823 8.28735L12.8628 4.07462C12.2707 3.48122 11.3106 3.48139 10.7188 4.07514C10.1278 4.66815 10.1278 5.62895 10.7188 6.22196L12.0613 7.55235C11.9381 7.71533 11.8367 7.88565 11.7542 8.04343C11.5784 8.01651 11.3986 8.00256 11.2157 8.00256H7.54054C7.21205 8.00256 6.89408 8.0474 6.59236 8.13128C6.14578 7.45 5.37544 7.00002 4.5 7.00002C3.11929 7.00002 2 8.11931 2 9.50002C2 10.7095 2.85888 11.7184 4 11.95V12.8842C4 14.0574 4.94834 15.0112 6.12162 15.0112H10.5058L10.5088 15.0112L10.5118 15.0112ZM12.155 4.78109L12.1559 4.78195L16.3745 8.99376C17.2086 9.83112 17.2085 11.189 16.374 12.0262C15.8283 12.5737 15.0612 12.7632 14.361 12.5934L13.8123 12.4603L13.7466 13.0211C13.6812 13.5795 13.2071 14.0112 12.6347 14.0112H11.0088V13.9107C11.0088 12.7837 9.98948 12 8.88718 12H7.5C7.22386 12 7 12.2239 7 12.5C7 12.7762 7.22386 13 7.5 13H8.88718C9.57607 13 10.0088 13.4653 10.0088 13.9107V14.0112H6.12162C5.50371 14.0112 5 13.5082 5 12.8842V11.5531C5 10.1429 6.13898 9.00256 7.54054 9.00256H11.2157C11.4543 9.00256 11.6845 9.03544 11.9023 9.09664L12.3249 9.21538L12.4973 8.81169C12.6085 8.55151 12.7618 8.24443 12.9691 8.02402L13.4716 7.54209L11.4271 5.516L11.4262 5.51511C11.225 5.31228 11.2253 4.98355 11.4271 4.78109C11.6283 4.57924 11.9538 4.57924 12.155 4.78109ZM5.65741 8.54581C4.82784 9.06936 4.23043 9.9285 4.0539 10.9326C3.44332 10.7426 3 10.1731 3 9.50002C3 8.6716 3.67157 8.00002 4.5 8.00002C4.96596 8.00002 5.38229 8.21248 5.65741 8.54581Z" fill="currentColor"/>
    </symbol>
    <symbol id="smallAndFurry" viewBox="0 0 100 125">
       <g>
            <path fill="currentColor" d="M77,38c0-7.128-4.673-11.837-11.906-12c-2.373-0.019-4.676,0.587-6.586,1.77C52.93,23.57,45.526,20,32,20  C15.512,20,8,32.441,8,44c0,5.77,2.024,13.205,6.929,18.264C10.966,63.205,8,66.753,8,71c0,4.963,4.037,9,9,9h60  c1.658,0,3-1.343,3-3s-1.342-3-3-3H17c-1.655,0-3-1.346-3-3s1.345-3,3-3h12h55.746C88.745,68,92,64.747,92,60.748  c0-1.898-0.724-3.69-2.042-5.046C81.055,46.561,77,40.118,77,38z M84.746,62H29c-14.827,0-15-17.82-15-18c0-6.686,3.791-18,18-18  c10.998,0,17.092,2.331,22.403,6.199c-1.585,3.112-1.96,6.754-0.413,10.069c0.7,1.501,2.484,2.15,3.987,1.45  c1.503-0.702,2.15-2.486,1.45-3.987c-0.615-1.317-0.568-2.766,0.146-4.434c0.876-2.055,3.018-3.294,5.385-3.299  C69.951,32.111,71,35.324,71,38c0,5.65,7.972,15.021,14.657,21.886C85.877,60.113,86,60.419,86,60.748  C86,61.438,85.437,62,84.746,62z"/>
            <path fill="currentColor" d="M71,50c0,1.657-1.343,3-3,3s-3-1.343-3-3c0-1.657,1.343-3,3-3S71,48.343,71,50z"/>
        </g>
    </symbol>
    <symbol id="aquarium" viewBox="0 0 20 20">
        <path d="M9.10307 4.0022C7.62708 4.0022 6.60442 4.55155 5.88773 5.38011C5.19354 6.18265 4.81207 7.21842 4.53039 8.14909L4.2725 9.00114H2.49951C2.22337 9.00114 1.99951 9.225 1.99951 9.50114C1.99951 10.5773 2.49695 11.603 3.29739 12.1311L2.8558 13.2037C2.58028 13.8729 2.89948 14.6387 3.56868 14.9142C3.72692 14.9793 3.89639 15.0128 4.06751 15.0128H5.53038C6.03799 15.0128 6.49996 14.7197 6.71608 14.2604L7.18644 13.2607C8.50024 13.4422 9.83068 13.4419 11.1445 13.26L11.6152 14.2604C11.8313 14.7197 12.2932 15.0128 12.8009 15.0128H14.2491C14.4205 15.0128 14.5902 14.9792 14.7486 14.9139C15.4177 14.6381 15.7365 13.8721 15.4606 13.203L14.9633 11.997H16.6664C17.3409 11.997 18 11.4758 18 10.7407V9.99899C18 8.86228 17.0121 8.00286 15.8786 8.00286H13.8042C13.5179 7.09646 13.0978 6.12696 12.3957 5.36765C11.6384 4.54855 10.5782 4.0022 9.10307 4.0022ZM14.672 10.997L14.0961 9.00286H15.8786C16.536 9.00286 17 9.48777 17 9.99899V10.7407C17 10.8296 16.8875 10.997 16.6664 10.997H14.672ZM14.101 12.529L14.5361 13.5842C14.6014 13.7427 14.5259 13.9241 14.3675 13.9894C14.3299 14.0049 14.2897 14.0128 14.2491 14.0128H12.8009C12.6806 14.0128 12.5712 13.9434 12.52 13.8346L12.1655 13.0812C12.8184 12.9427 13.465 12.7586 14.101 12.529ZM6.16526 13.0822L5.81124 13.8346C5.76006 13.9434 5.65064 14.0128 5.53038 14.0128H4.06751C4.02697 14.0128 3.98683 14.0049 3.94934 13.9895C3.79082 13.9242 3.71526 13.7428 3.7805 13.5844L4.21649 12.5254C4.85677 12.7573 5.50779 12.9429 6.16526 13.0822ZM3.63216 11.1168C3.35554 10.8566 3.13769 10.4742 3.04628 10.0011H3.96984L3.63216 11.1168ZM5.48751 8.43878C5.76342 7.52718 6.09671 6.66708 6.64404 6.03432C7.16886 5.42758 7.91447 5.0022 9.10307 5.0022C10.2972 5.0022 11.0919 5.43047 11.6615 6.04655C12.248 6.68082 12.6203 7.5417 12.8914 8.43562L13.7981 11.5751C10.7952 12.6691 7.54012 12.6708 4.53736 11.5781L5.48751 8.43878Z" fill="currentColor"/>
    </symbol>
    <symbol id="horse" viewBox="0 0 20 25">
        <g data-name="Group 285" transform="translate(-0.134 -0.001)">
            <path fill="currentColor" data-name="Path 901" d="M669.527-637.552h-1.993a.5.5,0,0,1-.5-.473c0-.018-.089-1.66-.1-3.687a19.24,19.24,0,0,1-1.941.129,8.311,8.311,0,0,1-3.2-.635,4.664,4.664,0,0,1-.854.9,1.533,1.533,0,0,0-.64.909,7.22,7.22,0,0,0-.091,2.295.5.5,0,0,1-.119.4.5.5,0,0,1-.376.171H658a.5.5,0,0,1-.5-.5v-5.7a4.313,4.313,0,0,1,4.289-4.5c.074,0,.149,0,.224.005l4.163.178a11.359,11.359,0,0,1,1.646-3.724,3.724,3.724,0,0,1,2.027-1.565A4.752,4.752,0,0,1,671-653.5a3.984,3.984,0,0,1,1.146.151.5.5,0,0,1,.312.295.5.5,0,0,1-.031.428l-.479.842c.542.677,1.821,2.37,1.939,3.415a1.325,1.325,0,0,1-.321,1.061,2.519,2.519,0,0,1-1.711.635.5.5,0,0,1-.367-.16,5.359,5.359,0,0,0-.8-.7,23.447,23.447,0,0,1-.064,3.06,6.287,6.287,0,0,1-.474,1.827,4.118,4.118,0,0,0-.368,1.7,17.533,17.533,0,0,0,.231,2.806.5.5,0,0,1-.108.41A.5.5,0,0,1,669.527-637.552Zm-1.516-1h.935a18.9,18.9,0,0,1-.158-2.4,5.07,5.07,0,0,1,.436-2.065,5.292,5.292,0,0,0,.41-1.562,23.807,23.807,0,0,0,.039-3.335.5.5,0,0,1,.016-.162.763.763,0,0,1,.75-.6,2.951,2.951,0,0,1,1.618.989,1.342,1.342,0,0,0,.766-.289.325.325,0,0,0,.072-.282,9.711,9.711,0,0,0-1.932-3.154.5.5,0,0,1-.052-.569l.292-.514c-.064,0-.131-.005-.2-.005a3.751,3.751,0,0,0-.91.112c-.938.235-2.232,1.661-3.049,4.956a.5.5,0,0,1-.507.379l-4.568-.2c-.062,0-.121,0-.181,0a3.3,3.3,0,0,0-3.289,3.5v5.2h.665a7.465,7.465,0,0,1,.161-2.1,2.485,2.485,0,0,1,.962-1.427,3.5,3.5,0,0,0,.874-1,.5.5,0,0,1,.629-.21,7.693,7.693,0,0,0,3.2.715,22.2,22.2,0,0,0,2.262-.168l.125-.013a.5.5,0,0,1,.387.126.5.5,0,0,1,.165.372C667.93-640.682,667.981-639.26,668.011-638.552Z" transform="translate(-655.132 655.526)"/>
            <path fill="currentColor" data-name="Path 884" d="M-657.73,667.748a14.947,14.947,0,0,1,.009-2.246,5.243,5.243,0,0,1,1.252-3.482,2.128,2.128,0,0,1,1.874-.508l-.173.985a1.121,1.121,0,0,0-1.026.261c-1.034.947-1.029,3.861-.939,4.9Z" transform="translate(659.267 -653.651)"/>
            <path fill="currentColor" data-name="Path 905" transform="translate(9.146 6.268)"/>
            <path fill="currentColor" data-name="Subtraction 130" d="M2,4.965H.077a.5.5,0,0,1-.461-.307l-.028-.066a.5.5,0,0,1-.035-.137,8.042,8.042,0,0,1,.121-2.6A2,2,0,0,1,.624.548a2.442,2.442,0,0,0,.794-.81.5.5,0,0,1,.5-.231.5.5,0,0,1,.407.377l.039.161a.5.5,0,0,1-.012.277,6.293,6.293,0,0,0-.351,2.163,10.068,10.068,0,0,0,.459,1.809A.5.5,0,0,1,2,4.965Zm-1.482-1h.8a9.4,9.4,0,0,1-.3-1.353,4.279,4.279,0,0,1,.042-1.145A.94.94,0,0,0,.644,2.1,6.489,6.489,0,0,0,.514,3.965ZM-1.652.822A.5.5,0,0,1-2.115.515L-2.4-.176a.5.5,0,0,1,.168-.6l.291-.211a.5.5,0,0,1,.521-.04.5.5,0,0,1,.273.445v.9a.5.5,0,0,1-.4.49A.5.5,0,0,1-1.652.822Z" transform="translate(4.52 13.012)"/>
            <path fill="currentColor" data-name="Path 908" d="M-658.27,667.237l-.978-.207c.052-.243,1.268-5.792,4.564-5.555l.013-.015.288.052-.084.466-.089.519c-1.036-.178-1.965.523-2.763,2.084A12.323,12.323,0,0,0-658.27,667.237Z" transform="translate(669.32 -659.352)"/>
            <path fill="currentColor" data-name="Subtraction 147" d="M633.734-640.026h0a.5.5,0,0,1-.489-.393L633-641.527l-.626-.215a.5.5,0,0,1-.331-.548,5.157,5.157,0,0,1,.146-.626c0-.016.01-.032.016-.048l.019-.048a6.32,6.32,0,0,0,.316-.968.5.5,0,0,1,.516-.39,2.67,2.67,0,0,1,2.559,1.716c.248.926.376,1.552.39,1.62a.5.5,0,0,1-.378.586l-1.78.411A.5.5,0,0,1,633.734-640.026Zm-.611-2.517.468.161a.5.5,0,0,1,.326.365l.2.89.807-.186c-.062-.269-.152-.64-.271-1.084a1.519,1.519,0,0,0-1.252-.923c-.077.248-.162.467-.241.668l-.01.026Z" transform="translate(-618.132 655.526)"/>
        </g>    
    </symbol>
    <symbol id="bird" viewBox="0 0 32 40">
        <g data-name="Layer 38">
            <path fill="currentColor" d="M19.58,19.22A7,7,0,0,1,12.8,21.9a1,1,0,1,0-.34,2A8.89,8.89,0,0,0,14,24a9,9,0,0,0,7.17-3.56A1,1,0,0,0,21,19,1,1,0,0,0,19.58,19.22Z"/>
            <path fill="currentColor" d="M29.44,15.1l-3.51-1.7a9.55,9.55,0,0,0-.73-2.71A9.43,9.43,0,0,0,16,5,9.65,9.65,0,0,0,7.48,11.6,8.73,8.73,0,0,0,7,15H3a1,1,0,0,0-.9,1.42A11.89,11.89,0,0,0,13,27V28H11a1,1,0,0,0,0,2h6a1,1,0,0,0,0-2H15V27a11.91,11.91,0,0,0,10.32-8l4.13-2.06a1,1,0,0,0,0-1.79Zm-5.38,2.25h0a1.12,1.12,0,0,0-.21.17.31.31,0,0,0-.09.07.53.53,0,0,0-.06.1,1.19,1.19,0,0,0-.13.25h0A10,10,0,0,1,4.21,17H8.14l.17,0s.07,0,.11,0l.19-.07.15-.1.14-.14.1-.15a1,1,0,0,0,.08-.18,1.06,1.06,0,0,0,0-.19s0-.07,0-.11,0-.06,0-.09,0-.06,0-.08a7,7,0,0,1,.26-3.59A7.64,7.64,0,0,1,16.09,7a7.48,7.48,0,0,1,7.28,4.49A7.18,7.18,0,0,1,24,14.11s0,.08,0,.13l.05.2.1.17a1.71,1.71,0,0,0,.11.14,1.09,1.09,0,0,0,.17.13l.1.08L26.73,16Z"/>
            <circle fill="currentColor" cx="20" cy="13" r="2"/>
        </g>    
    </symbol>
    <symbol id="farm" viewBox="0 0 100 125">
        <g>
            <g>
                <path fill="currentColor" d="M13.94,74.243v10.34c0,1.646,1.334,2.98,2.98,2.98c1.646,0,2.98-1.334,2.98-2.98v-13.99    C17.85,72.185,15.663,73.404,13.94,74.243z"/>
            </g>
            <path fill="currentColor" d="M91.872,25.622l-5.764-6.556c-1.851-2.308-4.496-3.63-7.27-3.63c-1.55,0-3.043,0.401-4.393,1.156   c-1.504,0.744-2.967,2.25-4.818,4.012c-0.427,0.363-2.671,2.741-4.614,3.887c-2.577,1.659-6.386,3.066-12.949,3.066H23.421   c-10.604,0-19.231,8.628-19.231,19.232v24.875v12.918c0,1.646,1.334,2.98,2.98,2.98s2.98-1.334,2.98-2.98   c0,0-0.003-8.963-0.005-8.963v-1.853c0.428-0.156,5.862-2.184,9.851-5.783c0.205-0.185,0.479-0.272,0.753-0.244   s0.524,0.174,0.686,0.396c0.019,0.026,1.372,1.851,3.798,3.337c2.362,1.17,5.276,2.034,8.752,2.034h18.283   c3.585,0,6.63-1.693,9.005-3.747v14.823c0,1.646,1.335,2.98,2.98,2.98s2.979-1.334,2.979-2.98v-11.37   c1.121-0.201,2.475-0.537,3.898-1.104v12.474c0,1.646,1.334,2.98,2.98,2.98c1.646,0,2.979-1.334,2.979-2.98V68.077   c2.185-2.406,3.869-5.927,3.869-11.075V38.333c2.579,1.834,4.699,2.934,6.986,2.934c2.325,0,4.397-0.944,5.836-2.657   C96.832,34.975,96.633,30.907,91.872,25.622z M76.559,26.489c-0.081,0.392-0.196,0.932-0.329,1.457   c-0.135,0.529-0.381,1.29-0.524,1.737c-0.988,3.088-2.317,4.172-2.317,4.172c-0.001,0.001,0,0,0.747,0.408l0,0   C74.932,34.678,75,35.766,75,37.522v19.479c0,6.951-4.491,9.322-7.666,10.13v-5.917c0-1.369-0.935-2.56-2.263-2.89   c-1.329-0.331-2.713,0.291-3.354,1.502c-1.137,2.147-5.051,7.719-9.45,7.719H33.984c-5.24,0-8.68-2.793-10.279-4.479   c0.364-0.925,0.648-1.918,0.827-2.988c0.27-1.623-0.827-3.158-2.45-3.43c-1.623-0.267-3.159,0.826-3.43,2.45   c-0.785,4.713-5.241,7.312-8.503,8.603V46.79c0-7.318,5.954-13.271,13.271-13.271h28.644c3.661,0,6.671-0.4,9.175-1.034   c0.06-0.091,5.169-5.329,5.169-5.329c0.349-0.349,0.896-0.4,1.185-0.126c0.288,0.274,0.292,0.708,0.01,1.011l-4.33,4.546   c0,0-0.899,0.78-0.881,1.895c0.002,0.149,0.318,1.268,1.883,1.349c1.601,0.082,3.331-0.225,4.892-1.116   c2.038-1.164,3.856-2.964,4.666-5.988c0.241-0.906,0.544-2.226,0.615-2.62c0.104-0.573,0.653-0.97,1.248-0.864   C76.276,25.348,76.663,25.908,76.559,26.489z"/>
        </g>
    </symbol>
     <symbol id="paw" viewBox="0 0 64 64">
      <path d="M40.1001 33.5099C37.9122 31.438 35.0134 30.2832 32.0001 30.2832C28.9868 30.2832 26.088 31.438 23.9001 33.5099L14.1301 42.7499C8.5301 47.8399 12.5701 57.5699 20.1301 57.1899C24.2301 57.0799 27.5601 54.9799 31.9901 55.0599C36.5801 54.9799 39.9901 56.8299 44.1101 57.1899C51.5401 57.3599 55.3801 47.7399 49.8601 42.7499L40.1001 33.5099Z" fill="currentColor"/>
      <path d="M56.9201 19.93C53.1001 19.18 50.1801 23.43 49.4201 27.09C47.1401 38.42 58.1201 40.58 60.6901 29.59C61.7401 24.88 60.0801 20.63 56.9201 19.93Z" fill="currentColor"/>
      <path d="M40.7301 26.05C44.5301 26.05 47.6201 21.73 47.6201 16.43C47.2401 3.66998 34.2201 3.66998 33.8501 16.43C33.8501 21.73 36.9401 26.05 40.7301 26.05Z" fill="currentColor"/>
      <path d="M14.58 27.09C13.83 23.43 10.9 19.18 7.08004 19.93C3.86238e-05 21.72 3.00004 36.81 9.92004 36.85C13.84 36.72 15.65 32.17 14.58 27.09Z" fill="currentColor"/>
      <path d="M23.27 26.05C27.06 26.05 30.15 21.73 30.15 16.43C29.78 3.66998 16.76 3.66998 16.38 16.43C16.38 21.73 19.47 26.05 23.27 26.05Z" fill="currentColor"/>
    </symbol>
    <!-- icons go here -->
  </defs>
</svg>