<?xml version="1.0" encoding="utf-8"?>
<svg xmlns="http://www.w3.org/2000/svg">
  <defs>
    <symbol id="dog" viewBox="0 0 20 20">
        <path d="M10.7703 2.39423C11.1861 2.09489 11.67 2 12 2H13.446C13.8991 2 14.3437 2.12314 14.7323 2.35627L16.5145 3.4256C16.8157 3.60633 17 3.93183 17 4.2831V5.5C17 6.32843 16.3284 7 15.5 7H15V15.0377C15.4214 15.1031 15.8427 15.2597 16.1951 15.5534C16.7041 15.9775 17 16.6298 17 17.5C17 17.7761 16.7761 18 16.5 18H13.5008H5C3.34315 18 2 16.6569 2 15C2 14.0194 2.47097 13.1487 3.19692 12.6021C3.41753 12.436 3.73101 12.4802 3.89711 12.7008C4.06321 12.9214 4.01903 13.2349 3.79843 13.401C3.31258 13.7668 3 14.3468 3 15C3 16.1046 3.89543 17 5 17C5.28751 17 5.4699 16.9296 5.58984 16.8496C5.71291 16.7676 5.80119 16.6546 5.86529 16.5264C5.93036 16.3963 5.96539 16.2601 5.98337 16.1522C5.99216 16.0994 5.99636 16.0566 5.99834 16.0288C5.99933 16.0151 5.99974 16.0053 5.99991 16.0002L6.00001 15.9971L6.00001 15.9952L6.00009 15.986L6.00061 15.955C6.00118 15.9287 6.00228 15.8916 6.00442 15.8445C6.0087 15.7504 6.01713 15.6163 6.03373 15.4502C6.06689 15.1186 6.13295 14.6567 6.26493 14.1287C6.52746 13.0786 7.05951 11.7334 8.14645 10.6464C9.98945 8.80344 10 6.33059 10 5.5V4C10 3.23704 10.3291 2.71193 10.7703 2.39423ZM10.924 6.90034C10.7686 8.15605 10.2952 9.91192 8.85355 11.3536C7.94049 12.2666 7.47254 13.4214 7.23507 14.3713C7.11705 14.8433 7.05811 15.2564 7.02877 15.5498C7.01412 15.6962 7.00692 15.8121 7.00339 15.8899C7.00162 15.9287 7.00078 15.958 7.00037 15.9767L7.00003 15.9967L7 16.001L7 16.0022L6.99998 16.0051L6.99989 16.0124L6.99936 16.0335C6.99879 16.0504 6.99775 16.0728 6.9958 16.1001C6.99192 16.1544 6.9844 16.2287 6.96976 16.3166C6.94086 16.4899 6.88214 16.7287 6.75971 16.9736C6.75532 16.9824 6.75085 16.9912 6.74628 17H12.9194C12.8188 16.6806 12.6161 16.3513 12.2672 16.1678C12.0815 16.07 11.833 16 11.4992 16H10.5C10.2239 16 10 15.7761 10 15.5C10 15.2239 10.2239 15 10.5 15H11.5C11.6759 15 11.8425 15.0138 12 15.0401V12.5C12 12.2239 12.2239 12 12.5 12C12.7761 12 13 12.2239 13 12.5V15.4481C13.5792 15.8657 13.8468 16.4875 13.9482 17H15.9481C15.8725 16.6723 15.7226 16.4614 15.5549 16.3216C15.2979 16.1074 14.9257 16 14.5 16C14.2239 16 14 15.7761 14 15.5V6.5C14 6.22386 14.2239 6 14.5 6H15.5C15.7761 6 16 5.77614 16 5.5V4.2831L14.2178 3.21376C13.9847 3.07389 13.7179 3 13.446 3H12C11.83 3 11.5639 3.05511 11.3547 3.20577C11.1709 3.33807 11 3.56296 11 4V5.5C11 5.58666 11.0301 5.72777 11.1058 5.83285C11.1631 5.91243 11.263 6 11.5 6C11.737 6 11.8369 5.91243 11.8942 5.83285C11.9699 5.72777 12 5.58666 12 5.5C12 5.22386 12.2239 5 12.5 5C12.7761 5 13 5.22386 13 5.5C13 5.74668 12.9301 6.10557 12.7058 6.41715C12.4631 6.75423 12.063 7 11.5 7C11.2842 7 11.0923 6.96388 10.924 6.90034Z" fill="currentColor" />
    </symbol>
    <symbol id="cat" viewBox="0 0 20 20">
        <path d="M4.97 17.9999H6.13535L6.14635 18H14.25C15.1973 18 15.9652 17.2316 15.9652 16.2838V8.67392C17.5742 8.61011 18.5384 6.82402 17.6784 5.43609L17.1759 4.62528C16.7893 4.00125 16.1076 3.62162 15.3738 3.62162H13.9393V2.98649C13.9393 2.44167 13.4979 2 12.9534 2C11.6033 2 10.5088 3.09509 10.5088 4.44594V7.90235C9.23089 8.02751 8.26575 8.63291 7.55728 9.48354C6.77452 10.4234 6.31397 11.6488 6.03955 12.8256C5.76369 14.0085 5.66653 15.1838 5.63741 16.0581C5.62494 16.4323 5.62487 16.7537 5.62892 16.9999H4.97C3.8817 16.9999 2.99945 16.1171 2.99945 15.0282C2.99945 14.5288 3.18885 14.048 3.52942 13.6829L4.4498 12.6963C5.34607 11.7355 5.64543 10.3611 5.23006 9.1143C5.05404 8.58594 4.75749 8.10585 4.36388 7.71204L3.46084 6.80855C3.26569 6.61329 2.94928 6.6133 2.75413 6.80856C2.55898 7.00383 2.55899 7.32041 2.75415 7.51567L3.65718 8.41917C3.94106 8.70319 4.15495 9.04945 4.2819 9.43052C4.58148 10.3298 4.36557 11.321 3.71915 12.014L2.79877 13.0006C2.28547 13.5509 2 14.2755 2 15.0282C2 16.6694 3.32972 17.9999 4.97 17.9999ZM12.9399 3.00006V4.12162C12.9399 4.39776 13.1636 4.62162 13.4396 4.62162H15.3738C15.7617 4.62162 16.1221 4.82232 16.3265 5.15222L16.8289 5.96303C17.2919 6.71022 16.7548 7.67568 15.8762 7.67568H15.4655C15.1895 7.67568 14.9658 7.89953 14.9658 8.17568V16.2838C14.9658 16.6793 14.6453 17 14.25 17H13.5342V16.2838C13.5342 14.6642 12.222 13.3513 10.6034 13.3513H9.5904C9.31441 13.3513 9.09068 13.5752 9.09068 13.8513C9.09068 14.1275 9.31441 14.3513 9.5904 14.3513H10.6034C11.67 14.3513 12.5347 15.2165 12.5347 16.2838V17H6.62851C6.62442 16.7663 6.62416 16.4556 6.6363 16.0914C6.66415 15.2554 6.75692 14.1503 7.01286 13.0528C7.27024 11.9491 7.68336 10.8942 8.32507 10.1237C8.95151 9.37158 9.80307 8.87838 11.0085 8.87838C11.2845 8.87838 11.5082 8.65452 11.5082 8.37838V4.44594C11.5082 3.65188 12.148 3.00732 12.9399 3.00006Z" fill="currentColor"/>
    </symbol>
    <symbol id="rabbit" viewBox="0 0 20 20">
        <path d="M10.5118 15.0112H12.6347C13.5402 15.0112 14.312 14.443 14.616 13.6436C15.4988 13.7136 16.4066 13.4101 17.0823 12.7321C18.3059 11.5046 18.3059 9.51494 17.0823 8.28735L12.8628 4.07462C12.2707 3.48122 11.3106 3.48139 10.7188 4.07514C10.1278 4.66815 10.1278 5.62895 10.7188 6.22196L12.0613 7.55235C11.9381 7.71533 11.8367 7.88565 11.7542 8.04343C11.5784 8.01651 11.3986 8.00256 11.2157 8.00256H7.54054C7.21205 8.00256 6.89408 8.0474 6.59236 8.13128C6.14578 7.45 5.37544 7.00002 4.5 7.00002C3.11929 7.00002 2 8.11931 2 9.50002C2 10.7095 2.85888 11.7184 4 11.95V12.8842C4 14.0574 4.94834 15.0112 6.12162 15.0112H10.5058L10.5088 15.0112L10.5118 15.0112ZM12.155 4.78109L12.1559 4.78195L16.3745 8.99376C17.2086 9.83112 17.2085 11.189 16.374 12.0262C15.8283 12.5737 15.0612 12.7632 14.361 12.5934L13.8123 12.4603L13.7466 13.0211C13.6812 13.5795 13.2071 14.0112 12.6347 14.0112H11.0088V13.9107C11.0088 12.7837 9.98948 12 8.88718 12H7.5C7.22386 12 7 12.2239 7 12.5C7 12.7762 7.22386 13 7.5 13H8.88718C9.57607 13 10.0088 13.4653 10.0088 13.9107V14.0112H6.12162C5.50371 14.0112 5 13.5082 5 12.8842V11.5531C5 10.1429 6.13898 9.00256 7.54054 9.00256H11.2157C11.4543 9.00256 11.6845 9.03544 11.9023 9.09664L12.3249 9.21538L12.4973 8.81169C12.6085 8.55151 12.7618 8.24443 12.9691 8.02402L13.4716 7.54209L11.4271 5.516L11.4262 5.51511C11.225 5.31228 11.2253 4.98355 11.4271 4.78109C11.6283 4.57924 11.9538 4.57924 12.155 4.78109ZM5.65741 8.54581C4.82784 9.06936 4.23043 9.9285 4.0539 10.9326C3.44332 10.7426 3 10.1731 3 9.50002C3 8.6716 3.67157 8.00002 4.5 8.00002C4.96596 8.00002 5.38229 8.21248 5.65741 8.54581Z" fill="currentColor"/>
    </symbol>
    <symbol id="smallAndFurry" viewBox="0 0 48 48">
       <g>
            <path d="M8.1,17.8c-0.7,0-1.3,0.6-1.3,1.3c0,0.7,0.6,1.3,1.3,1.3c0.7,0,1.3-0.6,1.3-1.3C9.5,18.4,8.9,17.8,8.1,17.8z" fill="currentColor"/>
            <path d="M42.8,29h-0.7v-2.5c0-8.1-6.6-14.6-14.6-14.6h-8c0.4-1.5,0.2-3.1-0.5-4.6c-0.2-0.5-0.6-0.8-1.1-1c-0.5-0.2-1-0.1-1.5,0.1   c-0.9,0.4-1.7,1.1-2.3,1.9c-0.6-0.8-1.4-1.4-2.4-1.9c-0.5-0.2-1-0.3-1.5-0.1c-0.5,0.2-0.9,0.5-1.1,1C8.3,9,8.2,10.9,8.9,12.6   C8.9,12.8,9,12.9,9,13.1c-1.6,1.2-6.6,5.5-8.4,10.4c-0.3,0.8-0.2,1.7,0.3,2.4C1.5,26.6,2.3,27,3.1,27h6.4l1.3,2H8.8   c-3.5,0-4.6,3.1-4.7,4.8L4,34.9h15.8c0.7,0,1.3-0.4,1.6-1c0.4-0.8,0.4-1.9-0.1-2.7L21.2,31H23c-0.6,0.9-0.9,2-0.9,2.8L22,34.9h15.8   c0.7,0,1.3-0.4,1.6-1c0.4-0.8,0.4-1.9-0.1-2.7L39.2,31h0.9h2h0.7c1.5,0,2.7,1.2,2.7,2.7s-1.2,2.7-2.7,2.7H9.9   c-2.9,0-5.3,2.4-5.3,5.3h2c0-1.8,1.5-3.3,3.3-3.3h32.9c2.6,0,4.7-2.1,4.7-4.7S45.4,29,42.8,29z M17.2,8.2c0.5,1.2,0.6,2.5,0.2,3.6   h-1.8c-0.1-0.5-0.2-1-0.3-1.5c0-0.1-0.1-0.2-0.1-0.2C15.6,9.3,16.3,8.7,17.2,8.2z M10.9,8.2c1.2,0.6,2,1.6,2.5,2.8   c0.4,1.2,0.4,2.5-0.2,3.7c-1.2-0.6-2-1.6-2.5-2.8C10.3,10.7,10.4,9.4,10.9,8.2z M40.1,29H38l-0.4-0.7l-1.7,1.1l1.8,2.9   c0.1,0.2,0.1,0.5,0,0.6H24.3c0.3-0.8,1-1.8,2.5-1.8h5.4v-2H20l-0.4-0.7l-1.7,1.1l1.8,2.9c0.1,0.2,0.1,0.5,0,0.6H6.3   C6.5,32,7.2,31,8.8,31h3.4h0.5h1.6v-2h-1l-2.6-4H3.1c-0.3,0-0.4-0.2-0.5-0.3c-0.1-0.1-0.2-0.3-0.1-0.5c1.5-4.2,5.9-8.1,7.6-9.4   c0.6,0.8,1.4,1.4,2.3,1.8l1.7,0.8l0.8-1.7c0.3-0.6,0.5-1.2,0.6-1.8h11.9c7,0,12.6,5.7,12.6,12.6L40.1,29L40.1,29z" fill="currentColor"/>
        </g>
    </symbol>
    <symbol id="aquarium" viewBox="0 0 20 20">
        <path d="M9.10307 4.0022C7.62708 4.0022 6.60442 4.55155 5.88773 5.38011C5.19354 6.18265 4.81207 7.21842 4.53039 8.14909L4.2725 9.00114H2.49951C2.22337 9.00114 1.99951 9.225 1.99951 9.50114C1.99951 10.5773 2.49695 11.603 3.29739 12.1311L2.8558 13.2037C2.58028 13.8729 2.89948 14.6387 3.56868 14.9142C3.72692 14.9793 3.89639 15.0128 4.06751 15.0128H5.53038C6.03799 15.0128 6.49996 14.7197 6.71608 14.2604L7.18644 13.2607C8.50024 13.4422 9.83068 13.4419 11.1445 13.26L11.6152 14.2604C11.8313 14.7197 12.2932 15.0128 12.8009 15.0128H14.2491C14.4205 15.0128 14.5902 14.9792 14.7486 14.9139C15.4177 14.6381 15.7365 13.8721 15.4606 13.203L14.9633 11.997H16.6664C17.3409 11.997 18 11.4758 18 10.7407V9.99899C18 8.86228 17.0121 8.00286 15.8786 8.00286H13.8042C13.5179 7.09646 13.0978 6.12696 12.3957 5.36765C11.6384 4.54855 10.5782 4.0022 9.10307 4.0022ZM14.672 10.997L14.0961 9.00286H15.8786C16.536 9.00286 17 9.48777 17 9.99899V10.7407C17 10.8296 16.8875 10.997 16.6664 10.997H14.672ZM14.101 12.529L14.5361 13.5842C14.6014 13.7427 14.5259 13.9241 14.3675 13.9894C14.3299 14.0049 14.2897 14.0128 14.2491 14.0128H12.8009C12.6806 14.0128 12.5712 13.9434 12.52 13.8346L12.1655 13.0812C12.8184 12.9427 13.465 12.7586 14.101 12.529ZM6.16526 13.0822L5.81124 13.8346C5.76006 13.9434 5.65064 14.0128 5.53038 14.0128H4.06751C4.02697 14.0128 3.98683 14.0049 3.94934 13.9895C3.79082 13.9242 3.71526 13.7428 3.7805 13.5844L4.21649 12.5254C4.85677 12.7573 5.50779 12.9429 6.16526 13.0822ZM3.63216 11.1168C3.35554 10.8566 3.13769 10.4742 3.04628 10.0011H3.96984L3.63216 11.1168ZM5.48751 8.43878C5.76342 7.52718 6.09671 6.66708 6.64404 6.03432C7.16886 5.42758 7.91447 5.0022 9.10307 5.0022C10.2972 5.0022 11.0919 5.43047 11.6615 6.04655C12.248 6.68082 12.6203 7.5417 12.8914 8.43562L13.7981 11.5751C10.7952 12.6691 7.54012 12.6708 4.53736 11.5781L5.48751 8.43878Z" fill="currentColor"/>
    </symbol>
    <symbol id="horse" viewBox="0 0 32 32">
        <path d="M 23.25 4 C 21.988281 4 20.90625 4.457031 20.125 5.125 C 19.34375 5.792969 18.828125 6.660156 18.46875 7.46875 C 17.90625 8.734375 17.871094 9.492188 17.8125 9.96875 C 17.355469 10.160156 16.175781 10.625 15 10.625 C 13.46875 10.625 12.390625 10 10.375 10 C 9.128906 10 8.007813 10.460938 7.21875 11.28125 C 7.144531 11.359375 7.070313 11.445313 7 11.53125 C 6.726563 11.457031 6.347656 11.375 5.875 11.375 C 5.167969 11.375 4.539063 11.726563 4.0625 12.1875 C 3.585938 12.648438 3.234375 13.222656 2.9375 13.90625 C 2.34375 15.273438 2 17.042969 2 19 L 4 19 C 4 17.277344 4.304688 15.742188 4.75 14.71875 C 4.972656 14.207031 5.226563 13.832031 5.4375 13.625 C 5.648438 13.417969 5.789063 13.375 5.875 13.375 C 6.011719 13.375 6.0625 13.394531 6.15625 13.40625 C 6.078125 13.769531 6 14.140625 6 14.53125 C 6 16.917969 7.441406 18.363281 7.96875 18.84375 C 7.964844 19.222656 7.925781 20.402344 7.1875 21.40625 L 7 21.65625 L 7 28 L 9 28 L 9 22.125 C 10.046875 20.34375 10 18.40625 10 18.40625 L 9.96875 18 L 9.65625 17.71875 C 9.65625 17.71875 8 16.171875 8 14.53125 C 8 13.675781 8.265625 13.0625 8.65625 12.65625 C 9.046875 12.25 9.582031 12 10.375 12 C 11.914063 12 12.992188 12.625 15 12.625 C 17.113281 12.625 19.0625 11.625 19.0625 11.625 L 19.5625 11.375 L 19.625 10.8125 C 19.625 10.8125 19.726563 9.53125 20.28125 8.28125 C 20.558594 7.65625 20.964844 7.058594 21.4375 6.65625 C 21.855469 6.296875 22.335938 6.046875 23 6 L 23 7 C 24.507813 7 25.09375 8.40625 25.09375 8.40625 L 25.15625 8.5625 L 25.28125 8.71875 L 27 10.40625 L 26.8125 10.625 C 26.371094 10.507813 25.871094 10.382813 25.65625 10.3125 L 25.3125 10.1875 L 24.96875 10.3125 C 24.949219 10.320313 24.375 10.457031 23.9375 10.375 C 23.5 10.292969 23.175781 10.183594 22.9375 9.53125 L 21.0625 10.21875 C 21.214844 10.636719 21.429688 10.988281 21.6875 11.28125 C 21.597656 11.746094 21.605469 12.199219 21.65625 12.625 C 21.765625 13.574219 22 14.476563 22 15.21875 C 22 16.511719 20.40625 17.84375 20.40625 17.84375 L 20 18.15625 L 20 28 L 22 28 L 22 19.09375 C 22.5625 18.660156 24 17.417969 24 15.21875 C 24 14.113281 23.738281 13.132813 23.65625 12.40625 C 23.652344 12.382813 23.660156 12.367188 23.65625 12.34375 C 24.285156 12.445313 24.714844 12.328125 25.15625 12.21875 C 25.75 12.402344 26.875 12.71875 26.875 12.71875 L 27.46875 12.875 L 27.875 12.40625 L 28.53125 11.6875 C 29.207031 10.9375 29.183594 9.777344 28.46875 9.0625 L 26.71875 7.28125 L 26.6875 7.3125 C 26.53125 7.003906 26.027344 6.082031 25 5.5 L 25 4 Z M 12 17 L 12 18 C 12 20.457031 10.375 21.71875 10.375 21.71875 L 10 22 L 10 28 L 12 28 L 12 22.84375 C 12.417969 22.449219 13.253906 21.492188 13.71875 19.625 C 14.425781 19.941406 15.535156 20.160156 17 20.25 L 17 28 L 19 28 L 19 18.34375 L 18 18.34375 C 15.96875 18.34375 14.90625 18.027344 14.40625 17.78125 C 14.15625 17.65625 14.039063 17.542969 14 17.5 L 13.78125 17 Z" fill="currentColor"/>
    </symbol>
    <symbol id="bird" viewBox="0 0 256 256">
        <rect fill="currentColor" height="256" width="256"/>
        <circle cx="164" cy="68" r="12"/>
        <line fill="currentColor" stroke="currentColor" stroke-linecap="round" stroke-linejoin="round" stroke-width="16" x1="120" x2="80" y1="136" y2="184"/>
        <path d="M208,96v24a96,96,0,0,1-96,96H8L104,96V76A52,52,0,0,1,206.3,62.9L232,80Z" fill="currentColor" stroke="#000" stroke-linecap="round" stroke-linejoin="round" stroke-width="16"/>
    </symbol>
    <symbol id="farm" viewBox="0 0 512 512">
        <g>
            <circle cx="95.544" cy="120.129" r="6.092"/>
            <path d="M52.036,158.65c1.529,13.043,8.456,25.276,19.531,34.188c1.654,1.332,3.709,2.02,5.784,2.02c1.37,0,2.75-0.3,4.028-0.912   c3.071-1.47,4.979-4.442,4.979-7.756v-19.708c2.89,0.85,5.969,1.582,9.218,2.154v46.601c0,24.491,7.338,47.76,20.436,67.261   l30.402,78.248l-5.061,91.254h-5.504c-3.59,0-6.5,2.91-6.5,6.5s2.91,6.5,6.5,6.5h40.902l7.313-103.351l40.502,90.348h-3.648   c-3.59,0-6.5,2.91-6.5,6.5s2.91,6.5,6.5,6.5h47.245l-30.653-69.636c-6.601-14.988-9.074-26.249-9.987-33.057   c-0.29-2.164-0.415-4.411-0.372-6.679c0.033-1.763,0.161-3.505,0.381-5.196c2.581-3.535,4.789-7.291,6.604-11.219   c15.688,3.727,32.82,5.542,52.244,5.542c8.686,0,17.202-0.698,25.643-2.111c2.37,6.864,6.051,11.126,14.018,17.157   c6.631,5.023,10.526,12.397,10.775,20.338l-19.32,71.86h-6.001c-3.59,0-6.5,2.91-6.5,6.5s2.91,6.5,6.5,6.5h34.024l15.615-53.536   v40.539h-1.31c-3.59,0-6.5,2.91-6.5,6.5s2.91,6.5,6.5,6.5h33.935v-62.789l5.899-49.619c1.415-9.813-2.642-14.166-5.192-15.889   c-6.181-4.178-9.281-11.393-9.464-22.039l2.397-7.32c8.089,16.843,25.315,28.5,45.215,28.5h18.79   c18.397,0,33.311-14.914,33.311-33.311v-6.501h-44.66c-13.181,0-24.049-10.626-24.009-23.807   c0.109-36.64-29.666-66.483-66.281-66.483h-18.033c-0.018,0-0.035-0.001-0.053-0.001h-20.183c-3.59,0-6.5,2.91-6.5,6.5   s2.91,6.5,6.5,6.5h20.183v0.001h0.053c15.166,0.016,29.41,6.717,39.091,18.394c7.306,8.814,11.341,19.66,11.68,30.858h-0.014v3.225   c-0.086,2.594-0.358,5.198-0.848,7.792l-1.846,9.785l-7.802,23.818v1.038c0,15.427,4.98,26.714,14.808,33.556   c0.13,0.471,0.271,1.623-0.018,3.584l-5.979,50.266l-0.046,0.383v50.559h-6.625v-80.289c0-1.725-0.111-3.457-0.331-5.154   l-0.065-0.5c-0.015-0.098-0.028-0.195-0.043-0.291l-0.033-0.209c-0.053-0.33-0.108-0.647-0.163-0.932   c-0.03-0.186-0.063-0.375-0.1-0.561l-0.072-0.371c-0.092-0.451-0.191-0.897-0.291-1.294c-0.115-0.475-0.233-0.948-0.369-1.413   c-0.085-0.317-0.179-0.629-0.286-0.977c-0.105-0.354-0.218-0.712-0.342-1.057c-0.187-0.561-0.39-1.119-0.576-1.611   c-0.069-0.187-0.143-0.367-0.216-0.546l-0.086-0.212c-0.231-0.561-0.476-1.121-0.698-1.586c-0.229-0.494-0.461-0.978-0.734-1.511   c-0.269-0.514-0.549-1.027-0.834-1.517c-1.025-1.769-2.185-3.451-3.506-5.074c-0.302-0.36-0.605-0.721-0.951-1.104l-0.281-0.308   c-0.342-0.379-0.695-0.744-1.06-1.109c-0.329-0.341-0.678-0.679-0.988-0.967c-0.267-0.254-0.533-0.496-0.812-0.737   c-0.32-0.286-0.642-0.56-0.963-0.817c-0.192-0.163-0.387-0.316-0.588-0.473c-0.38-0.311-0.778-0.605-1.181-0.898   c-0.29-0.21-0.58-0.426-0.857-0.652c-0.197-0.16-0.387-0.32-0.577-0.488l-0.33-0.291l-0.024-0.018   c-0.153-0.137-0.305-0.276-0.453-0.418c-0.065-0.064-0.131-0.126-0.197-0.186c-0.194-0.189-0.383-0.379-0.562-0.563   c-0.226-0.234-0.451-0.477-0.656-0.696c-0.662-0.73-1.319-1.544-2.006-2.488c-0.153-0.203-0.298-0.416-0.472-0.668   c-0.55-0.787-1.059-1.589-1.512-2.385l-0.131-0.221c-0.128-0.205-0.248-0.424-0.362-0.635l-0.078-0.14   c-0.17-0.294-0.322-0.589-0.477-0.89l-0.06-0.114c-0.178-0.331-0.348-0.663-0.498-0.978l-0.157-0.33   c-0.112-0.235-0.225-0.469-0.331-0.707l-0.064-0.139c-0.122-0.257-0.239-0.514-0.352-0.773l-0.19-0.443   c-0.125-0.295-0.252-0.595-0.403-0.973c-0.129-0.311-0.26-0.619-0.373-0.93l-0.093-0.238c-0.052-0.128-0.104-0.262-0.15-0.389   l-0.057-0.152c-0.093-0.238-0.178-0.478-0.268-0.732l-0.043-0.117c-0.126-0.347-0.252-0.693-0.387-1.098   c-0.287-0.843-0.556-1.693-0.821-2.572c-0.124-0.408-0.247-0.814-0.361-1.217c-0.271-0.961-0.525-1.92-0.759-2.873   c-0.13-0.531-0.252-1.044-0.366-1.536c-0.568-2.495-1.06-5.1-1.46-7.741l-0.018-0.107c-0.033-0.196-0.06-0.391-0.087-0.582   l-0.071-0.498c-0.048-0.313-0.089-0.621-0.13-0.924l-0.136-1.043c-0.056-0.456-0.11-0.901-0.159-1.333   c-0.237-2.108-0.414-4.181-0.54-6.331c-0.011-0.294-0.023-0.571-0.042-0.832l-0.022-0.547c-0.079-2.461-1.374-4.706-3.467-6.004   c-2.098-1.304-4.695-1.471-6.944-0.443c-8.408,3.834-32.643,10.985-48.985,10.985c-27.25,0-40.015-6.774-46.851-10.402   c-2.933-1.573-6.572-1.003-8.895,1.511c-1.773,1.921-2.313,4.691-1.582,7.201c2.173,7.46,3.889,18.938-0.122,31.518   c-0.317,0.982-0.603,1.808-0.868,2.514c-1.818,4.81-4.362,9.354-7.563,13.507l-0.997,1.294l-0.267,1.61   c-0.461,2.781-0.723,5.673-0.778,8.595c-0.056,2.925,0.107,5.836,0.485,8.654c1.025,7.641,3.761,20.187,10.974,36.566   l22.626,51.397h-9.423l-55.898-124.69l-21.848-51.785c-1.599-3.791-4.133-7.074-7.188-9.828c-5.29-4.77-8.32-11.574-8.32-18.703   v-11.806c0-3.59-2.91-6.5-6.5-6.5s-6.5,2.91-6.5,6.5v10.935c0,11.146,4.418,22.027,12.789,29.385   c1.667,1.467,3.005,3.324,3.868,5.369l11.121,26.36c-32.096-19.458-51.762-54.095-51.762-91.997v-45.336   c0.588,0.012,1.168,0.035,1.764,0.035c0.139,0,0.281,0,0.42-0.001c2.867-0.021,5.702-0.177,8.425-0.464   c9.309-0.979,17.999-5.05,24.734-11.439c2.964-2.813,2.699-7.607-0.604-10.012l-0.005-0.003c-2.571-1.872-6.072-1.557-8.385,0.628   c-4.667,4.412-10.674,7.222-17.102,7.897c-2.305,0.243-4.713,0.375-7.143,0.393c-16.69,0.095-29.545-5.534-37.432-10.258   l-1.542-0.924H54.317c-7.625,0-13.849-6.113-14.028-13.696c-0.024-1.037,0.161-2.086,0.659-2.996   c0.703-1.284,1.815-2.227,3.159-2.69l58.458-22.793c7.017-2.736,14.396-4.124,21.931-4.124c0.4,0,0.801,0.007,1.163,0.022   c3.624,0.167,7.097,1.115,10.323,2.819l0.414,0.219l4.583,1.632l0.596,0.094c3.661,0.58,7.6,1.854,11.389,3.682   c6.84,3.303,11.088,10.693,13.345,15.891c-5.483,1.458-13.937,2.727-20.744-0.561c-3.733-1.802-7.071-4.005-9.758-6.415   c-2.289-2.053-5.744-2.112-8.188-0.245c-3.205,2.449-3.472,7.245-0.465,9.934c3.61,3.229,7.969,6.122,12.759,8.434   c5.047,2.438,10.411,3.31,15.457,3.342l9.134,28.573l8.83,23.377c6.448,17.042,23.022,28.492,41.241,28.492h61.001   c3.59,0,6.5-2.91,6.5-6.5s-2.91-6.5-6.5-6.5h-61.001c-12.848,0-24.535-8.075-29.082-20.091l-8.658-22.897l-8.337-26.079   c5.049-1.234,8.478-2.742,8.816-2.894l4.984-2.237l-1.347-5.295c-0.229-0.896-5.773-22.035-22.335-30.034   c-0.581-0.28-1.166-0.551-1.755-0.811c3.116-4.878,7.065-8.824,11.61-11.5c6.93-4.081,14.814-4.988,22.201-2.553   c7.382,2.433,13.374,7.594,16.874,14.534c2.932,5.813,4.008,12.589,1.532,21.109c-0.896,3.086,0.422,6.385,3.252,7.91   c3.752,2.021,8.417,0.096,9.66-3.98c0.281-0.924,0.471-1.545,0.471-1.545c9.513-28.868-6.234-60.094-35.103-69.606   c-28.87-9.515-60.094,6.234-69.605,35.1c-0.214,0.646-0.403,1.301-0.592,1.956c-6.609,0.66-13.083,2.206-19.319,4.638   l-58.111,22.663c-3.628,1.283-6.729,3.618-8.964,6.745c-2.278,3.169-3.482,6.919-3.482,10.846   C27.285,145.857,38.195,157.487,52.036,158.65z M380.831,228.841c-0.047-0.057-0.098-0.109-0.146-0.166   c13.522,9.673,22.36,25.494,22.36,43.349c0,20.406,16.603,37.009,37.009,37.009h30.594c-2.717,8.021-10.317,13.812-19.244,13.812   h-18.79c-20.472,0-37.126-16.655-37.126-37.127v-14.243C395.961,256.052,390.849,240.926,380.831,228.841z M338.383,335.828   c0.213,0.413,0.428,0.821,0.659,1.227c0.202,0.37,0.416,0.747,0.638,1.109c0.635,1.108,1.338,2.216,2.065,3.256   c0.243,0.354,0.489,0.706,0.691,0.977c0.908,1.249,1.863,2.429,2.84,3.506l0.095,0.103c0.275,0.296,0.551,0.592,0.838,0.89   c0.309,0.319,0.616,0.627,0.935,0.935c0.071,0.07,0.143,0.137,0.215,0.201c0.285,0.273,0.578,0.539,0.885,0.814   c0.152,0.144,0.31,0.279,0.473,0.409c0.254,0.221,0.509,0.435,0.771,0.648c0.465,0.38,0.954,0.748,1.44,1.101   c0.2,0.146,0.404,0.289,0.594,0.447l0.663,0.535c0.164,0.128,0.327,0.27,0.49,0.416l0.091,0.08c0.134,0.115,0.262,0.23,0.434,0.394   c0.196,0.183,0.394,0.372,0.576,0.562l0.088,0.09c0.224,0.224,0.442,0.447,0.673,0.702l0.27,0.295   c0.212,0.235,0.416,0.48,0.559,0.65c0.831,1.021,1.599,2.138,2.29,3.331c0.195,0.335,0.382,0.679,0.53,0.96   c0.167,0.327,0.326,0.662,0.52,1.077c0.153,0.32,0.298,0.656,0.436,0.992h0.001l0.146,0.365c0.149,0.393,0.3,0.802,0.434,1.21   l0.101,0.286c0.041,0.113,0.073,0.232,0.107,0.349l0.043,0.143c0.05,0.161,0.101,0.321,0.145,0.489l0.066,0.237   c0.083,0.276,0.149,0.562,0.231,0.896c0.062,0.248,0.118,0.501,0.169,0.756l0.075,0.407l-24.889,85.325h-4.812l18.871-70.191   v-0.858c0-12.354-5.81-23.838-15.94-31.512c-5.246-3.973-7.575-6.346-9.006-9.522C329.386,338.762,333.882,337.4,338.383,335.828z    M239.547,304.011c8.921,3.504,22.384,7.022,42.528,7.022c15.418,0,35.078-5.112,46.985-9.269c0.031,0.299,0.064,0.599,0.098,0.898   c0.054,0.475,0.113,0.959,0.174,1.455l0.153,1.182c0.052,0.385,0.104,0.775,0.162,1.154l0.053,0.367   c0.041,0.287,0.082,0.575,0.131,0.867c0.446,2.939,0.995,5.844,1.637,8.662c0.133,0.569,0.265,1.128,0.408,1.715   c0.272,1.105,0.563,2.209,0.877,3.318c0.139,0.489,0.287,0.979,0.431,1.45c0.095,0.316,0.193,0.628,0.291,0.94   c-15.554,5.359-31.021,7.979-47.095,7.979c-17.89,0-33.645-1.612-48.01-4.91C240.309,318.486,240.354,310.687,239.547,304.011z    M160.378,322.18l7.823,4.085l4.608,10.278l-8.17,115.458h-10.266l5.178-93.342l-19.307-49.689   C146.425,313.965,153.149,318.405,160.378,322.18z M68.152,158.753c1.586,0.903,3.331,1.821,5.207,2.724v14.951   c-4.312-5.259-7.124-11.333-8.176-17.675H68.152z M151.14,64.517c10.048-5.066,21.465-5.918,32.151-2.396   c5.271,1.737,9.962,4.43,13.962,7.811c-0.825-0.33-1.66-0.645-2.512-0.926c-10.993-3.624-22.663-2.309-32.865,3.697   c-7.26,4.275-13.355,10.764-17.773,18.756l-2.482-0.884c-3.436-1.76-7.057-2.953-10.821-3.588   C134.555,77.201,141.715,69.27,151.14,64.517z"/>
        </g>
    </symbol>
    <!-- icons go here -->
  </defs>
</svg>