<?xml version="1.0" encoding="utf-8"?>
<svg xmlns="http://www.w3.org/2000/svg">
    <defs>
        <symbol id="facebook" viewBox="0 0 17 17">
            <path d="M14.1762 0.823608H2.68022C2.08296 0.823608 1.51015 1.06087 1.08782 1.4832C0.665486 1.90554 0.428223 2.47834 0.428223 3.07561V14.5716C0.428223 15.1689 0.665486 15.7417 1.08782 16.164C1.51015 16.5863 2.08296 16.8236 2.68022 16.8236H7.91222V10.9836H5.93422V8.70561H7.91222V7.02761C7.91222 6.07661 8.17522 5.33761 8.70122 4.81261C9.22722 4.28661 9.94022 4.02261 10.8412 4.02261C11.7432 4.02261 12.3272 4.05761 12.5942 4.12361V6.15161H11.3922C10.9582 6.15161 10.6622 6.24361 10.5032 6.42761C10.3452 6.61061 10.2662 6.88661 10.2662 7.25361V8.70561H12.5192L12.2192 10.9836H10.2662V16.8236H14.1762C14.7735 16.8236 15.3463 16.5863 15.7686 16.164C16.191 15.7417 16.4282 15.1689 16.4282 14.5716V3.07561C16.4282 2.47834 16.191 1.90554 15.7686 1.4832C15.3463 1.06087 14.7735 0.823608 14.1762 0.823608Z" fill="currentColor"/>
        </symbol>
        <symbol id="linkedin" viewBox="0 0 17 17">
            <path d="M14.0142 0.965088H2.51824C1.92097 0.965088 1.34816 1.20235 0.925831 1.62468C0.503499 2.04702 0.266235 2.61982 0.266235 3.21709V14.7131C0.266235 15.3104 0.503499 15.8832 0.925831 16.3055C1.34816 16.7278 1.92097 16.9651 2.51824 16.9651H14.0142C14.6115 16.9651 15.1843 16.7278 15.6066 16.3055C16.029 15.8832 16.2662 15.3104 16.2662 14.7131V3.21709C16.2662 2.61982 16.029 2.04702 15.6066 1.62468C15.1843 1.20235 14.6115 0.965088 14.0142 0.965088ZM5.60024 13.7491C5.60024 13.7891 5.57324 13.8491 5.52024 13.9301C5.44024 13.9841 5.37924 14.0101 5.33924 14.0101H3.48924C3.44924 14.0101 3.38924 13.9841 3.30924 13.9301C3.25524 13.8501 3.22824 13.7901 3.22824 13.7491V7.25509C3.22824 7.21509 3.25524 7.15509 3.30824 7.07509C3.38824 7.02109 3.44824 6.99409 3.48924 6.99409H5.33924C5.37924 6.99409 5.43924 7.02109 5.51924 7.07409C5.57324 7.15409 5.60024 7.21409 5.60024 7.25509V13.7491ZM5.29924 5.88809C5.18426 6.00567 5.04642 6.09845 4.89421 6.16071C4.742 6.22297 4.57865 6.25339 4.41424 6.25009C4.06524 6.25009 3.77124 6.13009 3.52924 5.88809C3.41161 5.77315 3.31879 5.63532 3.25653 5.4831C3.19427 5.33088 3.16388 5.16751 3.16724 5.00309C3.16724 4.66809 3.28824 4.38009 3.52924 4.13909C3.64292 4.01844 3.78007 3.92231 3.93226 3.85661C4.08445 3.79091 4.24847 3.75701 4.41424 3.75701C4.58 3.75701 4.74402 3.79091 4.89621 3.85661C5.0484 3.92231 5.18555 4.01844 5.29924 4.13909C5.53924 4.37909 5.66024 4.66909 5.66024 5.00309C5.66024 5.35209 5.54024 5.64709 5.29924 5.88809ZM13.4612 13.7491C13.4609 13.7831 13.4537 13.8167 13.4399 13.8478C13.4262 13.879 13.4062 13.907 13.3812 13.9301C13.3581 13.955 13.3301 13.975 13.299 13.9888C13.2679 14.0025 13.2343 14.0098 13.2002 14.0101H11.3102C11.2702 14.0101 11.2102 13.9841 11.1302 13.9301C11.0762 13.8501 11.0492 13.7901 11.0492 13.7491V9.78909C11.0492 9.45309 10.9892 9.19209 10.8682 9.00409C10.7202 8.84409 10.4792 8.76409 10.1442 8.76409C9.71524 8.76409 9.40724 8.89009 9.21924 9.14509C9.04524 9.40009 8.95824 9.76209 8.95824 10.2311V13.7491C8.95792 13.7831 8.95066 13.8167 8.93691 13.8478C8.92315 13.879 8.90319 13.907 8.87824 13.9301C8.85498 13.9552 8.82683 13.9752 8.79553 13.989C8.76423 14.0027 8.73043 14.0099 8.69624 14.0101H6.84624C6.80624 14.0101 6.74623 13.9841 6.66623 13.9301C6.61224 13.8501 6.58624 13.7901 6.58624 13.7491V7.25509C6.58624 7.21509 6.61224 7.15509 6.66623 7.07509C6.74623 7.02109 6.80624 6.99409 6.84624 6.99409H8.63624C8.69024 6.99409 8.74323 7.00709 8.79624 7.03409C8.82423 7.04809 8.85124 7.09409 8.87724 7.17409V7.27509L8.89723 7.31509V7.47609C9.34023 7.04809 9.95024 6.83309 10.7272 6.83309C11.5982 6.83309 12.2682 7.04109 12.7372 7.45609C13.2202 7.89809 13.4612 8.53609 13.4612 9.36609V13.7491Z" fill="currentColor"/>
        </symbol>
        <symbol id="x" viewBox="0 0 24 24">
            <g>
                <polygon fill="currentColor" points="12.153992,10.729553 8.088684,5.041199 5.92041,5.041199 10.956299,12.087097 11.59021,12.97345    15.900635,19.009583 18.068909,19.009583 12.785217,11.615906  "/>
                <path fill="currentColor" d="M21.15979,1H2.84021C1.823853,1,1,1.823853,1,2.84021v18.31958C1,22.176147,1.823853,23,2.84021,23h18.31958   C22.176147,23,23,22.176147,23,21.15979V2.84021C23,1.823853,22.176147,1,21.15979,1z M15.235352,20l-4.362549-6.213013   L5.411438,20H4l6.246887-7.104675L4,4h4.764648l4.130127,5.881958L18.06958,4h1.411377l-5.95697,6.775635L20,20H15.235352z"/>
            </g>
        </symbol>
        <symbol id="instagram" viewBox="0 0 17 17">
            <path d="M13.6683 4.78509C13.6683 4.90669 13.6443 5.02711 13.5978 5.13945C13.5513 5.2518 13.483 5.35388 13.3971 5.43987C13.3111 5.52586 13.209 5.59406 13.0966 5.6406C12.9843 5.68714 12.8639 5.71109 12.7423 5.71109C12.6207 5.71109 12.5003 5.68714 12.3879 5.6406C12.2756 5.59406 12.1735 5.52586 12.0875 5.43987C12.0015 5.35388 11.9333 5.2518 11.8868 5.13945C11.8402 5.02711 11.8163 4.90669 11.8163 4.78509C11.8163 4.5395 11.9138 4.30397 12.0875 4.13031C12.2612 3.95665 12.4967 3.85909 12.7423 3.85909C12.9879 3.85909 13.2234 3.95665 13.3971 4.13031C13.5707 4.30397 13.6683 4.5395 13.6683 4.78509ZM16.6083 8.96509V8.97709L16.5553 12.3331C16.5418 13.5434 16.055 14.7004 15.1992 15.5563C14.3435 16.4123 13.1866 16.8993 11.9763 16.9131L8.60828 16.9651H8.59628L5.24028 16.9121C4.02995 16.8986 2.87299 16.4118 2.01702 15.5561C1.16104 14.7003 0.674051 13.5434 0.660276 12.3331L0.608276 8.96509V8.95309L0.661276 5.59709C0.674786 4.38676 1.16152 3.2298 2.01731 2.37383C2.8731 1.51785 4.02995 1.03086 5.24028 1.01709L8.60828 0.965088H8.62028L11.9763 1.01809C13.1866 1.0316 14.3436 1.51833 15.1995 2.37412C16.0555 3.22991 16.5425 4.38676 16.5563 5.59709L16.6083 8.96509ZM15.1183 8.96509L15.0663 5.62009C15.0569 4.79737 14.7259 4.01099 14.1442 3.4292C13.5624 2.84742 12.776 2.51644 11.9533 2.50709L8.60828 2.45509L5.26328 2.50709C4.44056 2.51644 3.65418 2.84742 3.07239 3.4292C2.49061 4.01099 2.15963 4.79737 2.15028 5.62009L2.09828 8.96509L2.15028 12.3101C2.15963 13.1328 2.49061 13.9192 3.07239 14.501C3.65418 15.0828 4.44056 15.4137 5.26328 15.4231L8.60828 15.4751L11.9533 15.4231C12.776 15.4137 13.5624 15.0828 14.1442 14.501C14.7259 13.9192 15.0569 13.1328 15.0663 12.3101L15.1183 8.96509ZM12.7163 8.96509C12.7163 10.0546 12.2835 11.0995 11.5131 11.8699C10.7427 12.6403 9.69779 13.0731 8.60828 13.0731C7.51877 13.0731 6.47388 12.6403 5.70348 11.8699C4.93308 11.0995 4.50028 10.0546 4.50028 8.96509C4.50028 7.87558 4.93308 6.83069 5.70348 6.06029C6.47388 5.28989 7.51877 4.85709 8.60828 4.85709C9.69779 4.85709 10.7427 5.28989 11.5131 6.06029C12.2835 6.83069 12.7163 7.87558 12.7163 8.96509ZM11.2263 8.96509C11.2263 8.27075 10.9505 7.60485 10.4595 7.11388C9.96851 6.62291 9.30261 6.34709 8.60828 6.34709C7.91394 6.34709 7.24804 6.62291 6.75707 7.11388C6.2661 7.60485 5.99028 8.27075 5.99028 8.96509C5.99028 9.65942 6.2661 10.3253 6.75707 10.8163C7.24804 11.3073 7.91394 11.5831 8.60828 11.5831C9.30261 11.5831 9.96851 11.3073 10.4595 10.8163C10.9505 10.3253 11.2263 9.65942 11.2263 8.96509Z" fill="currentColor"/>
        </symbol>
        <symbol id="youtube" viewBox="0 0 512 512">
            <path d="M508.6,148.8c0-45-33.1-81.2-74-81.2C379.2,65,322.7,64,265,64c-3,0-6,0-9,0s-6,0-9,0c-57.6,0-114.2,1-169.6,3.6   c-40.8,0-73.9,36.4-73.9,81.4C1,184.6-0.1,220.2,0,255.8C-0.1,291.4,1,327,3.4,362.7c0,45,33.1,81.5,73.9,81.5   c58.2,2.7,117.9,3.9,178.6,3.8c60.8,0.2,120.3-1,178.6-3.8c40.9,0,74-36.5,74-81.5c2.4-35.7,3.5-71.3,3.4-107   C512.1,220.1,511,184.5,508.6,148.8z M207,353.9V157.4l145,98.2L207,353.9z" fill="currentColor"/>
        </symbol>
    </defs>
</svg>